M48
METRIC,0000.00
T01C0.486
T02C0.711
T03C0.9
T04C0.965
T05C1.0
T06C1.1
T07C1.3
T08C1.45
T09C2.54
%
T01
X-001283Y-002588
X-000984Y-003000
X-000362Y-002355
X-000552Y-002166
X-002319Y-001811
X-002381Y-004604
X-004556Y-004604
X-005427Y-002611
X-005356Y-001572
X-006101Y-001572
X+002476Y-002334
T02
X-006302Y-001842
X-006556Y-001842
X-005890Y-001842
X-005636Y-001842
X-005191Y-001842
X-004937Y-001842
X-004493Y-001810
X-004239Y-001810
X-000302Y-001937
X-000302Y-001683
T03
X-006020Y-004397
X-005347Y-004382
X-005286Y-003810
X-005032Y-003810
X-004778Y-003810
X-004556Y-003207
X-004302Y-003207
X-004302Y-002445
X-004556Y-002445
X-005651Y-002429
X-005905Y-002429
X-005905Y-003191
X-005651Y-003191
X-006382Y-003810
X-006636Y-003810
X-006890Y-003810
X-007030Y-004397
X-007017Y-003191
X-007271Y-003191
X-007271Y-002429
X-007017Y-002429
X-004337Y-004382
X-003632Y-004397
X-003540Y-003778
X-003286Y-003778
X-003032Y-003778
X-002953Y-003191
X-003207Y-003191
X-003207Y-002429
X-002953Y-002429
X-003016Y-001572
X-002762Y-001572
X-002508Y-001572
X-002254Y-001572
X-002000Y-001572
X-001508Y-001559
X-001508Y-002569
X-001429Y-003778
X-001683Y-003778
X-001175Y-003778
X-000860Y-004382
X+000073Y-004324
X+000073Y-004070
X+000073Y-003816
X+000073Y-003562
X+000073Y-003308
X+000073Y-003054
X+000454Y-003054
X+000454Y-003308
X+000454Y-003562
X+000454Y-003816
X+000454Y-004070
X+000454Y-004324
X+000454Y-004578
X+000454Y-004832
X+000454Y-005086
X+000454Y-005340
X+000454Y-005594
X+000454Y-005848
X+000454Y-006102
X+000454Y-006356
X+000454Y-006610
X+000073Y-006610
X+000073Y-006356
X+000073Y-006102
X+000073Y-005848
X+000073Y-005594
X+000073Y-005340
X+000073Y-005086
X+000073Y-004832
X+000073Y-004578
X-001870Y-004382
X-002622Y-004397
X-003270Y-001572
X+002756Y-003054
X+002756Y-003308
X+002756Y-003562
X+002756Y-003816
X+002756Y-004070
X+002756Y-004324
X+002756Y-004578
X+002756Y-004832
X+002756Y-005086
X+002756Y-005340
X+002756Y-005594
X+002756Y-005848
X+002756Y-006102
X+002756Y-006356
X+002756Y-006610
X+003121Y-006610
X+003121Y-006356
X+003121Y-006102
X+003121Y-005848
X+003121Y-005594
X+003121Y-005340
X+003121Y-005086
X+003121Y-004832
X+003121Y-004578
X+003121Y-004324
X+003121Y-004070
X+003121Y-003816
X+003121Y-003562
X+003121Y-003308
X+003121Y-003054
X+000857Y-007398
X+000603Y-007398
X+000349Y-007398
X+000095Y-007398
X-000159Y-007398
X-000413Y-007398
T04
X-007271Y-003429
X-006445Y-003350
X-005731Y-003397
X-005048Y-003350
X-005048Y-002334
X-003699Y-002302
X-003699Y-003318
X-003953Y-003365
X-003953Y-004382
X-005731Y-004413
X-007271Y-004445
X-006445Y-002334
X-002365Y-002254
X-002365Y-003270
X-002143Y-003350
X-002143Y-004366
X+000470Y-002588
X+000483Y-001572
T05
X+000762Y-008033
X+001088Y-008033
X+001588Y-008033
X+001881Y-008017
X+002381Y-008017
X+002707Y-008033
X+003207Y-008033
X+000262Y-008033
T06
X+003588Y-002683
X+003588Y-002429
X-000952Y-001953
X-000952Y-001699
T07
X+002953Y-001540
X+002453Y-001540
X-000992Y-007588
X-001492Y-007588
X-001992Y-007588
X-002707Y-007588
X-003207Y-007588
X-003707Y-007588
X-004437Y-007588
X-004937Y-007588
X-005437Y-007588
X-006168Y-007604
X-006668Y-007604
X-007168Y-007604
T08
X-006699Y-005020
X-007296Y-005223
X-006102Y-005223
X-005566Y-005207
X-004969Y-005004
X-004372Y-005207
X-003851Y-005207
X-003254Y-005004
X-002657Y-005207
X-002121Y-005207
X-001524Y-005004
X-000927Y-005207
X-000927Y-006426
X-002121Y-006426
X-002657Y-006426
X-003851Y-006426
X-004372Y-006426
X-005566Y-006426
X-006102Y-006442
X-007296Y-006442
T09
X-007414Y-001397
X-007414Y-008176
X+003556Y-008191
X+003572Y-001381
T00
M30
