G04 DipTrace 4.0.0.5*
G04 1 - Top.gbr*
%MOMM*%
G04 #@! TF.FileFunction,Copper,L1,Top*
G04 #@! TF.Part,Single*
G04 #@! TA.AperFunction,Conductor*
%ADD15C,0.989*%
%ADD16C,0.789*%
G04 #@! TA.AperFunction,CopperBalancing*
%ADD18C,0.935*%
G04 #@! TA.AperFunction,ComponentPad*
%ADD22R,1.5X1.5*%
%ADD23C,1.5*%
%ADD24R,1.7X1.7*%
%ADD25C,1.7*%
%ADD26R,2.5X2.5*%
%ADD27C,2.5*%
%ADD28C,1.27*%
%ADD29R,1.27X1.27*%
%ADD30O,2.2X3.6*%
%ADD31C,1.524*%
%ADD32C,1.524*%
%ADD33R,1.6X1.6*%
%ADD34C,1.6*%
%ADD35C,1.5*%
G04 #@! TA.AperFunction,ViaPad*
%ADD36C,1.016*%
%ADD74C,0.31373*%
%FSLAX35Y35*%
G04*
G71*
G90*
G75*
G01*
G04 Top*
%LPD*%
X469803Y-2587587D2*
D15*
X-1283420D1*
Y-2587550D1*
X-6889750Y-3810000D2*
Y-3905253D1*
X-6683377Y-4111627D1*
X-5588000D1*
X-5286373Y-3810000D1*
X2476500Y-2333623D2*
X2571750Y-2428873D1*
X3587750D1*
X-6100520Y-1571620D2*
X-5355710D1*
X2756190Y-4324067D2*
X3121303D1*
X2756190Y-3308067D2*
X3121303D1*
X-3540123Y-3778250D2*
Y-3873503D1*
X-3286127Y-4127500D1*
X-2032000D1*
X-1682750Y-3778250D1*
X-5286373Y-3810000D2*
Y-3952880D1*
X-5143503Y-4095750D1*
X-3952873D1*
X-3635373Y-3778250D1*
X-3540123D1*
X-2952750Y-3190877D2*
X-3166107Y-2977520D1*
X-4436107D1*
X-5438147D1*
X-5651500Y-3190873D1*
X-952500Y-1952627D2*
X-317500D1*
X-301623Y-1936750D1*
X-5651500Y-3190873D2*
Y-3052520D1*
X-5726500Y-2977520D1*
X-6803397D1*
X-7016750Y-3190873D1*
X-301623Y-1936750D2*
X2555873D1*
X2952750Y-1539873D1*
X-4302127Y-3206750D2*
Y-3111500D1*
X-4436107Y-2977520D1*
X-2952750Y-3190877D2*
Y-3127373D1*
X-2825750Y-3000373D1*
X-984250D1*
X454303Y-6356067D2*
D16*
X73307D1*
X-5426800Y-2610570D2*
Y-2296870D1*
X-5604600Y-2119070D1*
X-6326430D1*
X-6556377Y-1889123D1*
Y-1841503D1*
X-2381250Y-4603750D2*
Y-4619627D1*
X-2809873D1*
X-2937103Y-4492397D1*
Y-4445000D1*
X-3397747D1*
Y-4493120D1*
X-3524250Y-4619623D1*
X-4556127D1*
Y-4603750D1*
X73307Y-6356067D2*
X-140050D1*
X-317850Y-6178267D1*
Y-5238403D1*
X-936630Y-4619627D1*
X-1095373D1*
X-1238250Y-4476750D1*
X-1635123D1*
X-1778000Y-4619627D1*
X-2381250D1*
X73307Y-6102067D2*
X454303D1*
X-551650Y-2166250D2*
X-563000Y-2177600D1*
X-1467110D1*
X-1833630Y-1811080D1*
X-2319100D1*
X454303Y-5848067D2*
X73307D1*
X-4556127Y-3206750D2*
Y-3413123D1*
X-4372600Y-3596650D1*
X-4184023D1*
X-3952873Y-3365500D1*
X-1870250Y-4381500D2*
Y-4315000D1*
X-1682750Y-4127500D1*
X-1381123D1*
X-1174750Y-3921127D1*
Y-3778250D1*
X482697Y-1571667D2*
X-36317D1*
X-147400Y-1682750D1*
X-301623D1*
X3121303Y-3054067D2*
X2756190D1*
X-5048250Y-2333627D2*
Y-2621920D1*
X-5226050Y-2799720D1*
X-5979153D1*
X-6445250Y-2333623D1*
X-3698873Y-2301877D2*
X-4196717Y-2799720D1*
X-4582157D1*
X-5048250Y-2333627D1*
X-2365373Y-2254250D2*
X-2910843Y-2799720D1*
X-3521073D1*
X-3698873Y-2621920D1*
Y-2301877D1*
X-1508127Y-2568750D2*
X-2193750D1*
X-2365373Y-2397127D1*
Y-2254250D1*
X2756190Y-3054067D2*
X2512000Y-2809877D1*
X857250D1*
Y-2825750D1*
X-1317623D1*
X-1508127Y-2635247D1*
Y-2568750D1*
X857250Y-7397753D2*
Y-2825750D1*
X-1508127Y-1558750D2*
X-1282877D1*
X-1143000Y-1698627D1*
X-952500D1*
X-3206750Y-3190877D2*
Y-3365500D1*
X-3039830Y-3532420D1*
X-2858460D1*
X-2779080Y-3611800D1*
X-2405297D1*
X-2143123Y-3349627D1*
X454303Y-5086067D2*
X73307D1*
X-362500Y-2355400D2*
X-1843280D1*
X-2198450Y-2000230D1*
X-2508250D1*
X-2759350D1*
X-2846440Y-2087320D1*
X-4992930D1*
X-5191123Y-1889127D1*
Y-1841503D1*
X-2508250Y-2000230D2*
Y-1571627D1*
X73307Y-4832067D2*
X454303D1*
X-2254250Y-1571627D2*
Y-1433270D1*
X-2329250Y-1358270D1*
X-4314820D1*
X-4492623Y-1536073D1*
Y-1809753D1*
X73307Y-4578067D2*
X454303D1*
Y-3816067D2*
X73307D1*
X603250Y-7397753D2*
Y-7461250D1*
X746123Y-7604127D1*
X2278127D1*
X2706750Y-8032750D1*
X454303Y-6610067D2*
X73307D1*
X454303Y-5594067D2*
X73307D1*
X454303Y-5340067D2*
X73307D1*
X454303Y-4324067D2*
X73307D1*
X349250Y-7397753D2*
Y-7572377D1*
X539750Y-7762877D1*
X1627253D1*
X1881250Y-8016873D1*
X454303Y-4070067D2*
X73307D1*
X454303Y-3562067D2*
X73307D1*
X454303Y-3308067D2*
X73307D1*
X454303Y-3054067D2*
X73307D1*
X2756190Y-6610067D2*
X2969540D1*
X3121303D1*
Y-6356067D2*
X2756190D1*
X3121303Y-6102067D2*
X2756190D1*
X3121303Y-5848067D2*
X2756190D1*
X3228693D1*
X3365500Y-5984873D1*
Y-7223127D1*
X2952750Y-7635877D1*
Y-8064500D1*
X2794000Y-8223250D1*
X492127D1*
X349250Y-8080373D1*
X309623D1*
X262000Y-8032750D1*
X-158750Y-7397753D2*
Y-7612000D1*
X262000Y-8032750D1*
X3121303Y-5594067D2*
X2756190D1*
X3121303Y-5340067D2*
X2756190D1*
X3121303Y-5086067D2*
X2756190D1*
X3121303Y-4832067D2*
X2756190D1*
X3121303Y-4578067D2*
X2756190D1*
X3121303Y-4070067D2*
X2756190D1*
X3121303Y-3816067D2*
X2756190D1*
X3121303Y-3562067D2*
X2756190D1*
D36*
X-984250Y-3000373D3*
X-1283420Y-2587550D3*
X2476500Y-2333623D3*
X-5355710Y-1571620D3*
X-6100520D3*
X-5426800Y-2610570D3*
X-4556127Y-4603750D3*
X-2381250D3*
X-2319100Y-1811080D3*
X-551650Y-2166250D3*
X-362500Y-2355400D3*
X-7119660Y-1378167D2*
D18*
X-4586003D1*
X-1784303D2*
X-1617883D1*
X-1398390D2*
X-41153D1*
X3218740D2*
X3277283D1*
X-7128910Y-1471333D2*
X-6262267D1*
X-5193977D2*
X-4660333D1*
X-1784303D2*
X-1704700D1*
X-1119027D2*
X-187260D1*
X3218740D2*
X3291913D1*
X-7173390Y-1564500D2*
X-6292163D1*
X-5164080D2*
X-4673047D1*
X-4269757D2*
X-3486100D1*
X-1784303D2*
X-1724023D1*
X-773040D2*
X-506087D1*
X699740D2*
X1342260D1*
X1604090D2*
X2187957D1*
X3218740D2*
X3344050D1*
X-7288463Y-1657667D2*
X-6760833D1*
X-4862387D2*
X-4697110D1*
X-4107017D2*
X-3467460D1*
X-1748573D2*
X-1698867D1*
X-730427D2*
X-506087D1*
X681240D2*
X2215390D1*
X3218740D2*
X3492617D1*
X-7452753Y-1750833D2*
X-6760833D1*
X-4755017D2*
X-4697110D1*
X-4043260D2*
X-3382423D1*
X-3158053D2*
X-3128443D1*
X-2904073D2*
X-2874420D1*
X-1642617D2*
X-1593593D1*
X-1422637D2*
X-1342077D1*
X-726510D2*
X-506087D1*
X35790D2*
X368047D1*
X597340D2*
X2297283D1*
X3218740D2*
X3641640D1*
X-7452753Y-1844000D2*
X-6760833D1*
X-5431183D2*
X-5395607D1*
X-4732687D2*
X-4697110D1*
X-4037200D2*
X-2838373D1*
X-1549420D2*
X-1242547D1*
X2914037D2*
X3641413D1*
X-7452753Y-1937167D2*
X-6760833D1*
X-6122980D2*
X-6094103D1*
X-5456203D2*
X-5395607D1*
X-1456267D2*
X-1178470D1*
X2820887D2*
X3641230D1*
X-7452753Y-2030333D2*
X-6760833D1*
X-5442077D2*
X-5395607D1*
X-1917057D2*
X-1865663D1*
X2727690D2*
X3641003D1*
X-7452753Y-2123500D2*
X-6573300D1*
X-5348880D2*
X-5208027D1*
X-1823903D2*
X-1772467D1*
X-235733D2*
X3640773D1*
X-7452753Y-2216667D2*
X-6626393D1*
X-5266347D2*
X-5229400D1*
X-2725153D2*
X-2579110D1*
X-234687D2*
X2327137D1*
X2625837D2*
X3534910D1*
X-6800787Y-2309833D2*
X-6661073D1*
X-6217773D2*
X-6083710D1*
X-4820780D2*
X-4721947D1*
X-4086143D2*
X-3958100D1*
X-3481847D2*
X-3384973D1*
X-2736777D2*
X-2672213D1*
X-176533D2*
X2286303D1*
X-6800787Y-2403000D2*
X-6650503D1*
X-4086143D2*
X-4051297D1*
X-3507960D2*
X-3421113D1*
X-177037D2*
X364947D1*
X574643D2*
X2298423D1*
X-6800787Y-2496167D2*
X-6584103D1*
X-3518443D2*
X-3411453D1*
X665790D2*
X2373620D1*
X-7452753Y-2589333D2*
X-7410293D1*
X-6800787D2*
X-6440820D1*
X-3480160D2*
X-3346283D1*
X686980D2*
X2478483D1*
X-7452753Y-2682500D2*
X-6347670D1*
X-2542360D2*
X-2331283D1*
X2635543D2*
X3361777D1*
X-7452753Y-2775667D2*
X-6254473D1*
X-4950707D2*
X-4857480D1*
X-3921397D2*
X-3796407D1*
X-2635513D2*
X-1618977D1*
X2729057D2*
X3361777D1*
X-7452753Y-2868833D2*
X-6960123D1*
X2857073D2*
X3020390D1*
X3222203D2*
X3361777D1*
X-7452753Y-2962000D2*
X-7053320D1*
X3315627D2*
X3638907D1*
X-800883Y-3055167D2*
X-142643D1*
X1037663D2*
X2506010D1*
X3337273D2*
X3638723D1*
X-868193Y-3148333D2*
X-119903D1*
X647513D2*
X676850D1*
X1037663D2*
X2562973D1*
X3314533D2*
X3638497D1*
X-6801970Y-3241500D2*
X-6632090D1*
X-6258423D2*
X-6115157D1*
X-5436697D2*
X-5235097D1*
X-4861430D2*
X-4769160D1*
X-3496247D2*
X-3416420D1*
X-2743063D2*
X-2580567D1*
X-1956293D2*
X-131660D1*
X1037663D2*
X2551217D1*
X3326247D2*
X3638313D1*
X-6859027Y-3334667D2*
X-6661893D1*
X-6228617D2*
X-6063203D1*
X-5493753D2*
X-5264903D1*
X-4831627D2*
X-4736530D1*
X-3482393D2*
X-3387163D1*
X-2795017D2*
X-2572317D1*
X-1926490D2*
X-140957D1*
X1037663D2*
X2541920D1*
X3335543D2*
X3638087D1*
X-7053580Y-3427833D2*
X-6647130D1*
X-6243337D2*
X-5945763D1*
X-5515950D2*
X-5250137D1*
X-4846347D2*
X-4735893D1*
X-3513157D2*
X-3375403D1*
X-2711757D2*
X-2510203D1*
X-1941210D2*
X-104407D1*
X632020D2*
X676850D1*
X1037663D2*
X2578470D1*
X3299037D2*
X3637857D1*
X-7075043Y-3521000D2*
X-6572163D1*
X-6318350D2*
X-5907163D1*
X-5554550D2*
X-5175170D1*
X-4921360D2*
X-4698250D1*
X-3805643D2*
X-3752157D1*
X-3645590D2*
X-3302533D1*
X-2016223D2*
X-138543D1*
X1037663D2*
X2544337D1*
X3333173D2*
X3637677D1*
X-7452753Y-3614167D2*
X-7374473D1*
X-7167057D2*
X-7105730D1*
X-6560527D2*
X-6457000D1*
X-6306503D2*
X-5502337D1*
X-4957133D2*
X-4853607D1*
X-4703157D2*
X-4606373D1*
X-3950247D2*
X-3756073D1*
X-2156403D2*
X-1898703D1*
X-1039823D2*
X-135990D1*
X1037663D2*
X2546887D1*
X3330573D2*
X3637447D1*
X-7452753Y-3707333D2*
X-7105730D1*
X-6193070D2*
X-5502337D1*
X-4589723D2*
X-4513177D1*
X-4043443D2*
X-3829857D1*
X-2249557D2*
X-1898703D1*
X-971327D2*
X-111747D1*
X639357D2*
X676850D1*
X1037663D2*
X2571133D1*
X3306330D2*
X3637267D1*
X-7452753Y-3800500D2*
X-7105730D1*
X-6166000D2*
X-5542307D1*
X-4562610D2*
X-3923053D1*
X-2817350D2*
X-1970437D1*
X-959980D2*
X-142097D1*
X1037663D2*
X2540827D1*
X3336680D2*
X3637037D1*
X-7452753Y-3893667D2*
X-7105730D1*
X-6183457D2*
X-5635457D1*
X-4580110D2*
X-4016203D1*
X-2851390D2*
X-2063587D1*
X-994023D2*
X-127560D1*
X1037663D2*
X2555363D1*
X3322143D2*
X3636857D1*
X-7452753Y-3986833D2*
X-7105730D1*
X-1007467D2*
X-125143D1*
X1037663D2*
X2557733D1*
X3319773D2*
X3636627D1*
X-7452753Y-4080000D2*
X-6980403D1*
X-3671703D2*
X-3599030D1*
X-1082343D2*
X-142417D1*
X1037663D2*
X2540463D1*
X3337047D2*
X3636400D1*
X-7452753Y-4173167D2*
X-6887253D1*
X-5384107D2*
X-5331530D1*
X-3764857D2*
X-3505880D1*
X-1175493D2*
X-115117D1*
X642730D2*
X676850D1*
X1037663D2*
X2567760D1*
X3309703D2*
X3636217D1*
X-7452753Y-4266333D2*
X-7386230D1*
X-6860533D2*
X-6786810D1*
X-3463253D2*
X-3411727D1*
X-1271833D2*
X-1076203D1*
X-644297D2*
X-134440D1*
X1037663D2*
X2548437D1*
X3329027D2*
X3635990D1*
X-6817147Y-4359500D2*
X-6235607D1*
X-5132087D2*
X-4552827D1*
X-2406417D2*
X-2360223D1*
X-644297D2*
X-139590D1*
X1037663D2*
X2543287D1*
X3334220D2*
X3635807D1*
X-499510Y-4452667D2*
X-100260D1*
X627873D2*
X676850D1*
X1037663D2*
X2582617D1*
X3294890D2*
X3635580D1*
X-499510Y-4545833D2*
X-140137D1*
X1037663D2*
X2542740D1*
X3334723D2*
X3635397D1*
X-499510Y-4639000D2*
X-133483D1*
X1037663D2*
X2549393D1*
X3328067D2*
X3635170D1*
X-499510Y-4732167D2*
X-116893D1*
X644507D2*
X676850D1*
X1037663D2*
X2565983D1*
X3311527D2*
X3634940D1*
X-479640Y-4825333D2*
X-142553D1*
X1037663D2*
X2540327D1*
X3337183D2*
X3634760D1*
X-386490Y-4918500D2*
X-123730D1*
X1037663D2*
X2559147D1*
X3318317D2*
X3634530D1*
X-293293Y-5011667D2*
X-128790D1*
X1037663D2*
X2554087D1*
X3323420D2*
X3634350D1*
X-200140Y-5104833D2*
X-141823D1*
X1037663D2*
X2541053D1*
X3336407D2*
X3634120D1*
X-142263Y-5198000D2*
X-109740D1*
X637307D2*
X676850D1*
X1037663D2*
X2573183D1*
X3304323D2*
X3633940D1*
X1037663Y-5291167D2*
X2546067D1*
X3331393D2*
X3633710D1*
X1037663Y-5384333D2*
X2545020D1*
X3332490D2*
X3633483D1*
X-137433Y-5477500D2*
X-106640D1*
X634253D2*
X676850D1*
X1037663D2*
X2576237D1*
X3301270D2*
X3633300D1*
X1037663Y-5570667D2*
X2541557D1*
X3335953D2*
X3633073D1*
X1037663Y-5663833D2*
X2552357D1*
X3325150D2*
X3632890D1*
X1037663Y-5757000D2*
X2561380D1*
X3388907D2*
X3632663D1*
X1037663Y-5850167D2*
X2540233D1*
X3482060D2*
X3632433D1*
X647013Y-5943333D2*
X676850D1*
X1037663D2*
X2563477D1*
X3540803D2*
X3632253D1*
X1037663Y-6036500D2*
X2550897D1*
X3545907D2*
X3632023D1*
X1037663Y-6129667D2*
X2542057D1*
X3545907D2*
X3631843D1*
X631290Y-6222833D2*
X676850D1*
X1037663D2*
X2579200D1*
X3545907D2*
X3631613D1*
X-499510Y-6316000D2*
X-431393D1*
X1037663D2*
X2544153D1*
X3545907D2*
X3631433D1*
X-499510Y-6409167D2*
X-338243D1*
X1037663D2*
X2540233D1*
X3545907D2*
X3631203D1*
X-499510Y-6502333D2*
X-238120D1*
X1037663D2*
X2540233D1*
X3545907D2*
X3630977D1*
X-499510Y-6595500D2*
X-142643D1*
X1037663D2*
X2540233D1*
X3545907D2*
X3630793D1*
X-499510Y-6688667D2*
X-142643D1*
X1037663D2*
X2540233D1*
X3545907D2*
X3630567D1*
X-499510Y-6781833D2*
X-142643D1*
X1037663D2*
X2540233D1*
X3545907D2*
X3630383D1*
X-499510Y-6875000D2*
X676850D1*
X1037663D2*
X3185090D1*
X3545907D2*
X3630157D1*
X-499510Y-6968167D2*
X676850D1*
X1037663D2*
X3185090D1*
X3545907D2*
X3629973D1*
X-499510Y-7061333D2*
X676850D1*
X1037663D2*
X3185090D1*
X3545907D2*
X3629747D1*
X-499510Y-7154500D2*
X676850D1*
X1037663D2*
X3182857D1*
X3545907D2*
X3629517D1*
X1073210Y-7247667D2*
X3089660D1*
X3544130D2*
X3629337D1*
X1073210Y-7340833D2*
X2996510D1*
X3498967D2*
X3629107D1*
X2305413Y-7434000D2*
X2903360D1*
X3405907D2*
X3628927D1*
X2452430Y-7527167D2*
X2811303D1*
X3312757D2*
X3628697D1*
X-499510Y-7620333D2*
X-338973D1*
X100867D2*
X175683D1*
X2545627D2*
X2773020D1*
X3219560D2*
X3628517D1*
X-499510Y-7713500D2*
X-305793D1*
X194020D2*
X239077D1*
X2638777D2*
X2772337D1*
X3133153D2*
X3628287D1*
X-499510Y-7806667D2*
X-215377D1*
X287217D2*
X332273D1*
X1922327D2*
X2160293D1*
X2731930D2*
X2772337D1*
X3133153D2*
X3628060D1*
X-499510Y-7899833D2*
X-122180D1*
X2066930D2*
X2160293D1*
X3427737D2*
X3627877D1*
X-499510Y-7993000D2*
X-29030D1*
X1304723D2*
X1366550D1*
X2100880D2*
X2160293D1*
X-499510Y-8086167D2*
X47897D1*
X-499510Y-8179333D2*
X100033D1*
X-499510Y-8272500D2*
X290117D1*
X2996023D2*
X3273137D1*
X-4543493Y-4380057D2*
Y-4276833D1*
X-5143503Y-4276820D1*
X-5166793Y-4275313D1*
X-5169023Y-4276327D1*
X-5158367Y-4296903D1*
X-5150080Y-4318540D1*
X-5144267Y-4340970D1*
X-5141003Y-4363910D1*
X-5140430Y-4377327D1*
X-4543513Y-4380040D1*
X-5403327Y-4183020D2*
X-5387403Y-4178893D1*
X-5364463Y-4175630D1*
X-5341303Y-4174957D1*
X-5318460Y-4176857D1*
X-5357800Y-4137523D1*
X-5402940Y-4182640D1*
X-2415757Y-4308583D2*
Y-4389747D1*
X-2349520Y-4390057D1*
X-2349640Y-4388880D1*
X-2350943Y-4365610D1*
X-2349633Y-4342343D1*
X-2345730Y-4319367D1*
X-2342623Y-4308587D1*
X-2415773Y-4308570D1*
X-2193667Y-2739820D2*
X-1714747Y-2739800D1*
Y-2775370D1*
X-1609933D1*
X-1565997Y-2819303D1*
X-2688510Y-2819317D1*
X-2436817Y-2567613D1*
X-2314170Y-2690257D1*
X-2296530Y-2705503D1*
X-2276983Y-2718207D1*
X-2255887Y-2728137D1*
X-2233637Y-2735107D1*
X-2210623Y-2738983D1*
X-2193667Y-2739820D1*
X2633010Y-2688957D2*
X2795557Y-2851507D1*
X2802313Y-2852660D1*
X2824573Y-2859090D1*
X2845973Y-2867973D1*
X2866247Y-2879197D1*
X2871577Y-2882983D1*
X3005440Y-2882997D1*
X3011503Y-2879037D1*
X3031790Y-2867843D1*
X3053203Y-2858993D1*
X3075473Y-2852593D1*
X3098320Y-2848730D1*
X3121453Y-2847447D1*
X3144587Y-2848763D1*
X3167427Y-2852660D1*
X3189687Y-2859090D1*
X3211087Y-2867973D1*
X3231360Y-2879197D1*
X3250247Y-2892620D1*
X3267513Y-2908070D1*
X3282940Y-2925360D1*
X3296333Y-2944267D1*
X3307527Y-2964553D1*
X3316377Y-2985967D1*
X3322777Y-3008237D1*
X3326640Y-3031083D1*
X3327923Y-3054067D1*
X3326607Y-3077350D1*
X3322710Y-3100190D1*
X3316280Y-3122450D1*
X3307397Y-3143850D1*
X3296173Y-3164123D1*
X3284207Y-3180963D1*
X3296333Y-3198267D1*
X3307527Y-3218553D1*
X3316377Y-3239967D1*
X3322777Y-3262237D1*
X3326640Y-3285083D1*
X3327923Y-3308067D1*
X3326607Y-3331350D1*
X3322710Y-3354190D1*
X3316280Y-3376450D1*
X3307397Y-3397850D1*
X3296173Y-3418123D1*
X3284207Y-3434963D1*
X3296333Y-3452267D1*
X3307527Y-3472553D1*
X3316377Y-3493967D1*
X3322777Y-3516237D1*
X3326640Y-3539083D1*
X3327923Y-3562067D1*
X3326607Y-3585350D1*
X3322710Y-3608190D1*
X3316280Y-3630450D1*
X3307397Y-3651850D1*
X3296173Y-3672123D1*
X3284207Y-3688963D1*
X3296333Y-3706267D1*
X3307527Y-3726553D1*
X3316377Y-3747967D1*
X3322777Y-3770237D1*
X3326640Y-3793083D1*
X3327923Y-3816067D1*
X3326607Y-3839350D1*
X3322710Y-3862190D1*
X3316280Y-3884450D1*
X3307397Y-3905850D1*
X3296173Y-3926123D1*
X3284207Y-3942963D1*
X3296333Y-3960267D1*
X3307527Y-3980553D1*
X3316377Y-4001967D1*
X3322777Y-4024237D1*
X3326640Y-4047083D1*
X3327923Y-4070067D1*
X3326607Y-4093350D1*
X3322710Y-4116190D1*
X3316280Y-4138450D1*
X3307397Y-4159850D1*
X3296173Y-4180123D1*
X3284207Y-4196963D1*
X3296333Y-4214267D1*
X3307527Y-4234553D1*
X3316377Y-4255967D1*
X3322777Y-4278237D1*
X3326640Y-4301083D1*
X3327923Y-4324067D1*
X3326607Y-4347350D1*
X3322710Y-4370190D1*
X3316280Y-4392450D1*
X3307397Y-4413850D1*
X3296173Y-4434123D1*
X3284207Y-4450963D1*
X3296333Y-4468267D1*
X3307527Y-4488553D1*
X3316377Y-4509967D1*
X3322777Y-4532237D1*
X3326640Y-4555083D1*
X3327923Y-4578067D1*
X3326607Y-4601350D1*
X3322710Y-4624190D1*
X3316280Y-4646450D1*
X3307397Y-4667850D1*
X3296173Y-4688123D1*
X3284207Y-4704963D1*
X3296333Y-4722267D1*
X3307527Y-4742553D1*
X3316377Y-4763967D1*
X3322777Y-4786237D1*
X3326640Y-4809083D1*
X3327923Y-4832067D1*
X3326607Y-4855350D1*
X3322710Y-4878190D1*
X3316280Y-4900450D1*
X3307397Y-4921850D1*
X3296173Y-4942123D1*
X3284207Y-4958963D1*
X3296333Y-4976267D1*
X3307527Y-4996553D1*
X3316377Y-5017967D1*
X3322777Y-5040237D1*
X3326640Y-5063083D1*
X3327923Y-5086067D1*
X3326607Y-5109350D1*
X3322710Y-5132190D1*
X3316280Y-5154450D1*
X3307397Y-5175850D1*
X3296173Y-5196123D1*
X3284207Y-5212963D1*
X3296333Y-5230267D1*
X3307527Y-5250553D1*
X3316377Y-5271967D1*
X3322777Y-5294237D1*
X3326640Y-5317083D1*
X3327923Y-5340067D1*
X3326607Y-5363350D1*
X3322710Y-5386190D1*
X3316280Y-5408450D1*
X3307397Y-5429850D1*
X3296173Y-5450123D1*
X3284207Y-5466963D1*
X3296333Y-5484267D1*
X3307527Y-5504553D1*
X3316377Y-5525967D1*
X3322777Y-5548237D1*
X3326640Y-5571083D1*
X3327923Y-5594067D1*
X3326607Y-5617350D1*
X3322710Y-5640190D1*
X3316280Y-5662450D1*
X3307397Y-5683850D1*
X3302037Y-5693533D1*
X3311927Y-5698610D1*
X3331477Y-5711317D1*
X3349117Y-5726560D1*
X3486410Y-5863853D1*
X3497823Y-5876447D1*
X3511337Y-5895447D1*
X3522140Y-5916107D1*
X3530037Y-5938047D1*
X3534877Y-5960853D1*
X3536570Y-5984107D1*
Y-7223050D1*
X3535733Y-7240023D1*
X3531857Y-7263013D1*
X3524887Y-7285263D1*
X3514957Y-7306360D1*
X3502250Y-7325907D1*
X3487007Y-7343550D1*
X3123833Y-7706723D1*
X3123807Y-7821130D1*
X3418370D1*
X3418367Y-7941927D1*
X3427073Y-7937060D1*
X3448243Y-7927397D1*
X3470127Y-7919493D1*
X3492583Y-7913400D1*
X3515463Y-7909157D1*
X3538613Y-7906790D1*
X3561877Y-7906320D1*
X3585100Y-7907750D1*
X3608133Y-7911063D1*
X3630817Y-7916247D1*
X3637167Y-7918253D1*
X3638077Y-7517597D1*
X3648397Y-2899493D1*
X3371130D1*
Y-2609947D1*
X2571750Y-2609943D1*
X2548480Y-2608443D1*
X2525597Y-2603963D1*
X2503480Y-2596580D1*
X2482497Y-2586417D1*
X2462990Y-2573640D1*
X2445273Y-2558447D1*
X2364113Y-2477310D1*
X2353903Y-2468703D1*
X2337633Y-2451917D1*
X2323647Y-2433190D1*
X2312170Y-2412823D1*
X2303390Y-2391160D1*
X2297457Y-2368550D1*
X2294460Y-2345370D1*
X2294450Y-2321993D1*
X2297433Y-2298810D1*
X2303353Y-2276197D1*
X2312120Y-2254527D1*
X2323583Y-2234157D1*
X2337560Y-2215417D1*
X2353817Y-2198620D1*
X2372087Y-2184040D1*
X2392073Y-2171917D1*
X2413443Y-2162447D1*
X2435850Y-2155790D1*
X2458927Y-2152053D1*
X2482290Y-2151297D1*
X2505557Y-2153533D1*
X2528347Y-2158727D1*
X2550287Y-2166793D1*
X2571017Y-2177597D1*
X2590190Y-2190967D1*
X2607500Y-2206677D1*
X2618293Y-2219343D1*
X2646753Y-2247807D1*
X3468860Y-2247803D1*
X3486167Y-2237550D1*
X3507447Y-2227687D1*
X3529670Y-2220183D1*
X3552573Y-2215130D1*
X3575890Y-2212577D1*
X3599343Y-2212563D1*
X3622663Y-2215087D1*
X3645573Y-2220113D1*
X3649937Y-2221580D1*
X3651073Y-1707610D1*
X3651193Y-1655133D1*
X3646580Y-1656410D1*
X3623893Y-1661583D1*
X3600860Y-1664890D1*
X3577633Y-1666310D1*
X3554370Y-1665830D1*
X3531223Y-1663457D1*
X3508347Y-1659203D1*
X3485890Y-1653100D1*
X3464010Y-1645187D1*
X3442843Y-1635513D1*
X3422540Y-1624150D1*
X3403227Y-1611170D1*
X3385037Y-1596660D1*
X3368090Y-1580713D1*
X3352500Y-1563440D1*
X3338370Y-1544950D1*
X3325793Y-1525373D1*
X3314857Y-1504837D1*
X3305627Y-1483473D1*
X3298170Y-1461433D1*
X3292537Y-1438857D1*
X3288760Y-1415897D1*
X3286870Y-1392703D1*
X3286873Y-1369433D1*
X3288773Y-1346243D1*
X3292560Y-1323283D1*
X3298203Y-1300710D1*
X3303140Y-1286140D1*
X3209380Y-1286387D1*
X3209370Y-1796493D1*
X2952180D1*
X2717767Y-2030927D1*
X2684177Y-2064517D1*
X2671577Y-2076030D1*
X2652717Y-2089747D1*
X2632253Y-2100923D1*
X2610523Y-2109377D1*
X2587887Y-2114967D1*
X2564720Y-2117603D1*
X2555873Y-2117820D1*
X-229013D1*
X-250387Y-2125023D1*
X-273013Y-2129760D1*
X-285677Y-2130877D1*
X-292040Y-2131897D1*
X-315310Y-2133683D1*
X-372523Y-2133700D1*
X-370737Y-2142867D1*
X-369230Y-2166250D1*
X-369670Y-2173137D1*
X-356710Y-2173073D1*
X-333443Y-2175310D1*
X-310653Y-2180503D1*
X-288713Y-2188570D1*
X-267983Y-2199373D1*
X-248810Y-2212743D1*
X-231500Y-2228453D1*
X-216340Y-2246247D1*
X-203583Y-2265833D1*
X-193433Y-2286890D1*
X-186060Y-2309073D1*
X-181587Y-2332017D1*
X-180080Y-2355400D1*
X-181570Y-2378670D1*
X-186030Y-2401617D1*
X-187663Y-2406533D1*
X-23683Y-2406517D1*
X368473Y-2406513D1*
X379650Y-2400340D1*
X401180Y-2391423D1*
X423577Y-2384973D1*
X446550Y-2381070D1*
X469820Y-2379767D1*
X493090Y-2381073D1*
X516063Y-2384980D1*
X538457Y-2391433D1*
X559987Y-2400353D1*
X580383Y-2411627D1*
X599390Y-2425117D1*
X616767Y-2440647D1*
X632293Y-2458023D1*
X645780Y-2477033D1*
X657050Y-2497430D1*
X665967Y-2518963D1*
X672417Y-2541357D1*
X676320Y-2564333D1*
X677623Y-2587587D1*
X676317Y-2610870D1*
X672410Y-2633847D1*
X666403Y-2654687D1*
X785303Y-2654680D1*
X799680Y-2648783D1*
X822120Y-2642453D1*
X845233Y-2639230D1*
X857317Y-2638807D1*
X2512000D1*
X2535260Y-2640397D1*
X2558090Y-2645133D1*
X2580063Y-2652930D1*
X2600770Y-2663643D1*
X2619847Y-2677087D1*
X2633010Y-2688957D1*
X2696130Y-1458503D2*
Y-1287860D1*
X2578997Y-1288173D1*
X2503823Y-1288387D1*
X2516057Y-1291183D1*
X2527293Y-1294320D1*
X2538377Y-1297960D1*
X2549283Y-1302103D1*
X2559990Y-1306733D1*
X2570473Y-1311850D1*
X2580713Y-1317433D1*
X2600413Y-1329993D1*
X2618887Y-1344290D1*
X2635983Y-1360207D1*
X2651560Y-1377613D1*
X2665493Y-1396367D1*
X2677660Y-1416307D1*
X2687967Y-1437270D1*
X2696133Y-1458593D1*
X2250230Y-1382590D2*
X2253667Y-1377950D1*
X2269213Y-1360517D1*
X2286283Y-1344570D1*
X2304733Y-1330243D1*
X2324410Y-1317650D1*
X2345150Y-1306900D1*
X2355850Y-1302253D1*
X2366747Y-1298093D1*
X2377823Y-1294433D1*
X2389057Y-1291283D1*
X2400277Y-1288680D1*
X2250210Y-1289103D1*
X2250230Y-1382287D1*
X3287650Y-8287627D2*
X3282297Y-8271807D1*
X3276663Y-8249230D1*
X3275863Y-8244363D1*
X3014800Y-8244370D1*
X2971557Y-8287623D1*
X3287427D1*
X-6108650Y-1864780D2*
X-6112763Y-1887530D1*
X-6119537Y-1909633D1*
X-6128880Y-1930780D1*
X-6139080Y-1948013D1*
X-6084737Y-1948000D1*
X-6084743Y-1753367D1*
X-6098990Y-1754033D1*
X-6122330Y-1752730D1*
X-6129310Y-1751433D1*
X-6128693Y-1752587D1*
X-6119397Y-1773750D1*
X-6112667Y-1795870D1*
X-6108603Y-1818627D1*
X-6107257Y-1841503D1*
X-6108650Y-1864780D1*
X-5255730Y-2321973D2*
X-5255227Y-2314907D1*
X-5254753Y-2310263D1*
X-5254177Y-2305633D1*
X-5253497Y-2301017D1*
X-5252710Y-2296417D1*
X-5251823Y-2291833D1*
X-5250833Y-2287273D1*
X-5249743Y-2282737D1*
X-5248550Y-2278223D1*
X-5247253Y-2273740D1*
X-5245860Y-2269287D1*
X-5244367Y-2264867D1*
X-5242773Y-2260480D1*
X-5241080Y-2256133D1*
X-5239293Y-2251823D1*
X-5228933Y-2230947D1*
X-5216300Y-2211363D1*
X-5201553Y-2193317D1*
X-5184880Y-2177033D1*
X-5166487Y-2162720D1*
X-5162120Y-2160047D1*
X-5285550Y-2036623D1*
X-5386243D1*
Y-1752683D1*
X-5461897Y-1752690D1*
X-5452643Y-1773750D1*
X-5445913Y-1795870D1*
X-5441850Y-1818627D1*
X-5440503Y-1841503D1*
X-5441897Y-1864780D1*
X-5446010Y-1887530D1*
X-5452783Y-1909633D1*
X-5462127Y-1930780D1*
X-5473903Y-1950673D1*
X-5487950Y-1969033D1*
X-5501283Y-1982740D1*
X-5496753Y-1986280D1*
X-5483593Y-1998150D1*
X-5305837Y-2175907D1*
X-5290510Y-2193477D1*
X-5277717Y-2212970D1*
X-5267693Y-2234020D1*
X-5260627Y-2256237D1*
X-5256643Y-2279233D1*
X-2776987Y-1830073D2*
X-2799983Y-1834057D1*
X-2822200Y-1841123D1*
X-2843250Y-1851147D1*
X-2862743Y-1863940D1*
X-2880317Y-1879263D1*
X-2917290Y-1916250D1*
X-4075327Y-1916263D1*
X-4065127Y-1899030D1*
X-4055783Y-1877883D1*
X-4049010Y-1855780D1*
X-4044897Y-1833030D1*
X-4043503Y-1809753D1*
X-4044850Y-1786877D1*
X-4048913Y-1764120D1*
X-4055643Y-1742000D1*
X-4064940Y-1720837D1*
X-4076677Y-1700917D1*
X-4090687Y-1682527D1*
X-4106773Y-1665923D1*
X-4124710Y-1651340D1*
X-4144243Y-1638977D1*
X-4165103Y-1629013D1*
X-4186997Y-1621587D1*
X-4209617Y-1616803D1*
X-4232640Y-1614727D1*
X-4255747Y-1615387D1*
X-4278617Y-1618777D1*
X-4297503Y-1623917D1*
Y-1614633D1*
X-4321553Y-1614627D1*
X-4321540Y-1606920D1*
X-4243957Y-1529340D1*
X-3472313Y-1529360D1*
X-3475553Y-1548343D1*
X-3476870Y-1571477D1*
X-3475587Y-1594610D1*
X-3471723Y-1617457D1*
X-3465323Y-1639727D1*
X-3456473Y-1661140D1*
X-3445280Y-1681427D1*
X-3431887Y-1700333D1*
X-3416460Y-1717623D1*
X-3399193Y-1733073D1*
X-3380307Y-1746497D1*
X-3360033Y-1757720D1*
X-3338633Y-1766603D1*
X-3316373Y-1773033D1*
X-3293533Y-1776930D1*
X-3270400Y-1778247D1*
X-3247267Y-1776963D1*
X-3224420Y-1773100D1*
X-3202150Y-1766700D1*
X-3180737Y-1757850D1*
X-3160450Y-1746657D1*
X-3143147Y-1734530D1*
X-3126307Y-1746497D1*
X-3106033Y-1757720D1*
X-3084633Y-1766603D1*
X-3062373Y-1773033D1*
X-3039533Y-1776930D1*
X-3016400Y-1778247D1*
X-2993267Y-1776963D1*
X-2970420Y-1773100D1*
X-2948150Y-1766700D1*
X-2926737Y-1757850D1*
X-2906450Y-1746657D1*
X-2889147Y-1734530D1*
X-2872307Y-1746497D1*
X-2852033Y-1757720D1*
X-2830633Y-1766603D1*
X-2808373Y-1773033D1*
X-2785533Y-1776930D1*
X-2762400Y-1778247D1*
X-2739267Y-1776963D1*
X-2716420Y-1773100D1*
X-2694150Y-1766700D1*
X-2679323Y-1760573D1*
X-2679340Y-1829160D1*
X-2759290D1*
X-2776987Y-1830073D1*
X-156927Y-6526300D2*
X-179940Y-6522420D1*
X-202187Y-6515453D1*
X-223283Y-6505523D1*
X-242833Y-6492817D1*
X-260473Y-6477570D1*
X-438773Y-6299273D1*
X-450173Y-6286690D1*
X-463687Y-6267693D1*
X-474490Y-6247030D1*
X-482387Y-6225093D1*
X-487227Y-6202287D1*
X-488917Y-6179033D1*
X-488920Y-5309280D1*
X-508867Y-5289317D1*
X-508873Y-7214853D1*
X-508860Y-7215170D1*
X-502263Y-7211530D1*
X-480850Y-7202680D1*
X-458580Y-7196280D1*
X-435733Y-7192417D1*
X-412600Y-7191133D1*
X-389467Y-7192450D1*
X-366627Y-7196347D1*
X-344367Y-7202777D1*
X-322967Y-7211660D1*
X-302693Y-7222883D1*
X-285853Y-7234850D1*
X-285667D1*
X-268550Y-7222723D1*
X-248263Y-7211530D1*
X-226850Y-7202680D1*
X-204580Y-7196280D1*
X-181733Y-7192417D1*
X-158600Y-7191133D1*
X-135467Y-7192450D1*
X-112627Y-7196347D1*
X-90367Y-7202777D1*
X-68967Y-7211660D1*
X-48693Y-7222883D1*
X-31853Y-7234850D1*
X-31667D1*
X-14550Y-7222723D1*
X5737Y-7211530D1*
X27150Y-7202680D1*
X49420Y-7196280D1*
X72267Y-7192417D1*
X95400Y-7191133D1*
X118533Y-7192450D1*
X141373Y-7196347D1*
X163633Y-7202777D1*
X185033Y-7211660D1*
X205307Y-7222883D1*
X222147Y-7234850D1*
X222333D1*
X239450Y-7222723D1*
X259737Y-7211530D1*
X281150Y-7202680D1*
X303420Y-7196280D1*
X326267Y-7192417D1*
X349400Y-7191133D1*
X372533Y-7192450D1*
X395373Y-7196347D1*
X417633Y-7202777D1*
X439033Y-7211660D1*
X459307Y-7222883D1*
X476147Y-7234850D1*
X476333D1*
X493450Y-7222723D1*
X513737Y-7211530D1*
X535150Y-7202680D1*
X557420Y-7196280D1*
X580267Y-7192417D1*
X603400Y-7191133D1*
X626533Y-7192450D1*
X649373Y-7196347D1*
X650613Y-7196707D1*
X650630Y-7191133D1*
X686200D1*
X686180Y-7047760D1*
Y-2996807D1*
X652493Y-2996800D1*
X655943Y-3008970D1*
X659723Y-3031830D1*
X660923Y-3054067D1*
X659607Y-3077350D1*
X655710Y-3100190D1*
X649280Y-3122450D1*
X640397Y-3143850D1*
X629173Y-3164123D1*
X617207Y-3180963D1*
X617227Y-3181117D1*
X629733Y-3198903D1*
X640853Y-3219233D1*
X649627Y-3240677D1*
X655943Y-3262970D1*
X659723Y-3285830D1*
X660923Y-3308067D1*
X659607Y-3331350D1*
X655710Y-3354190D1*
X649280Y-3376450D1*
X640397Y-3397850D1*
X629173Y-3418123D1*
X617207Y-3434963D1*
X617227Y-3435117D1*
X629733Y-3452903D1*
X640853Y-3473233D1*
X649627Y-3494677D1*
X655943Y-3516970D1*
X659723Y-3539830D1*
X660923Y-3562067D1*
X659607Y-3585350D1*
X655710Y-3608190D1*
X649280Y-3630450D1*
X640397Y-3651850D1*
X629173Y-3672123D1*
X617207Y-3688963D1*
X617227Y-3689117D1*
X629733Y-3706903D1*
X640853Y-3727233D1*
X649627Y-3748677D1*
X655943Y-3770970D1*
X659723Y-3793830D1*
X660923Y-3816067D1*
X659607Y-3839350D1*
X655710Y-3862190D1*
X649280Y-3884450D1*
X640397Y-3905850D1*
X629173Y-3926123D1*
X617207Y-3942963D1*
X617227Y-3943117D1*
X629733Y-3960903D1*
X640853Y-3981233D1*
X649627Y-4002677D1*
X655943Y-4024970D1*
X659723Y-4047830D1*
X660923Y-4070067D1*
X659607Y-4093350D1*
X655710Y-4116190D1*
X649280Y-4138450D1*
X640397Y-4159850D1*
X629173Y-4180123D1*
X617207Y-4196963D1*
X617227Y-4197117D1*
X629733Y-4214903D1*
X640853Y-4235233D1*
X649627Y-4256677D1*
X655943Y-4278970D1*
X659723Y-4301830D1*
X660923Y-4324067D1*
X659607Y-4347350D1*
X655710Y-4370190D1*
X649280Y-4392450D1*
X640397Y-4413850D1*
X629173Y-4434123D1*
X617207Y-4450963D1*
X617227Y-4451117D1*
X629733Y-4468903D1*
X640853Y-4489233D1*
X649627Y-4510677D1*
X655943Y-4532970D1*
X659723Y-4555830D1*
X660923Y-4578067D1*
X659607Y-4601350D1*
X655710Y-4624190D1*
X649280Y-4646450D1*
X640397Y-4667850D1*
X629173Y-4688123D1*
X617207Y-4704963D1*
X617227Y-4705117D1*
X629733Y-4722903D1*
X640853Y-4743233D1*
X649627Y-4764677D1*
X655943Y-4786970D1*
X659723Y-4809830D1*
X660923Y-4832067D1*
X659607Y-4855350D1*
X655710Y-4878190D1*
X649280Y-4900450D1*
X640397Y-4921850D1*
X629173Y-4942123D1*
X617207Y-4958963D1*
X617227Y-4959117D1*
X629733Y-4976903D1*
X640853Y-4997233D1*
X649627Y-5018677D1*
X655943Y-5040970D1*
X659723Y-5063830D1*
X660923Y-5086067D1*
X659607Y-5109350D1*
X655710Y-5132190D1*
X649280Y-5154450D1*
X640397Y-5175850D1*
X629173Y-5196123D1*
X617207Y-5212963D1*
X617227Y-5213117D1*
X629733Y-5230903D1*
X640853Y-5251233D1*
X649627Y-5272677D1*
X655943Y-5294970D1*
X659723Y-5317830D1*
X660923Y-5340067D1*
X659607Y-5363350D1*
X655710Y-5386190D1*
X649280Y-5408450D1*
X640397Y-5429850D1*
X629173Y-5450123D1*
X617207Y-5466963D1*
X617227Y-5467117D1*
X629733Y-5484903D1*
X640853Y-5505233D1*
X649627Y-5526677D1*
X655943Y-5548970D1*
X659723Y-5571830D1*
X660923Y-5594067D1*
X659607Y-5617350D1*
X655710Y-5640190D1*
X649280Y-5662450D1*
X640397Y-5683850D1*
X629173Y-5704123D1*
X617207Y-5720963D1*
X617227Y-5721117D1*
X629733Y-5738903D1*
X640853Y-5759233D1*
X649627Y-5780677D1*
X655943Y-5802970D1*
X659723Y-5825830D1*
X660923Y-5848067D1*
X659607Y-5871350D1*
X655710Y-5894190D1*
X649280Y-5916450D1*
X640397Y-5937850D1*
X629173Y-5958123D1*
X617207Y-5974963D1*
X617227Y-5975117D1*
X629733Y-5992903D1*
X640853Y-6013233D1*
X649627Y-6034677D1*
X655943Y-6056970D1*
X659723Y-6079830D1*
X660923Y-6102067D1*
X659607Y-6125350D1*
X655710Y-6148190D1*
X649280Y-6170450D1*
X640397Y-6191850D1*
X629173Y-6212123D1*
X617207Y-6228963D1*
X617227Y-6229117D1*
X629733Y-6246903D1*
X640853Y-6267233D1*
X649627Y-6288677D1*
X655943Y-6310970D1*
X659723Y-6333830D1*
X660923Y-6356067D1*
X659607Y-6379350D1*
X655710Y-6402190D1*
X655350Y-6403430D1*
X660923Y-6403447D1*
Y-6816687D1*
X-133313D1*
Y-6527140D1*
X-139970Y-6527137D1*
X-156927Y-6526300D1*
X418740Y-7883793D2*
X228287Y-7693340D1*
X212960Y-7675770D1*
X200167Y-7656277D1*
X190143Y-7635227D1*
X183077Y-7613010D1*
X179093Y-7590013D1*
X178763Y-7586457D1*
X163350Y-7592827D1*
X141080Y-7599227D1*
X118233Y-7603090D1*
X95100Y-7604373D1*
X74383Y-7603193D1*
X294893Y-7823713D1*
X313957Y-7827607D1*
X336207Y-7834567D1*
X357560Y-7843933D1*
X377750Y-7855593D1*
X396537Y-7869400D1*
X413690Y-7885193D1*
X429003Y-7902777D1*
X442287Y-7921937D1*
X453383Y-7942440D1*
X454693Y-7945670D1*
X457097Y-7947583D1*
X470257Y-7959450D1*
X550380Y-8039587D1*
Y-7933950D1*
X539750Y-7933947D1*
X516490Y-7932357D1*
X493660Y-7927620D1*
X471687Y-7919823D1*
X450980Y-7909110D1*
X431903Y-7895667D1*
X418740Y-7883793D1*
X-329823Y-7586700D2*
X-344650Y-7592827D1*
X-366920Y-7599227D1*
X-389767Y-7603090D1*
X-412900Y-7604373D1*
X-436033Y-7603057D1*
X-458873Y-7599160D1*
X-481133Y-7592730D1*
X-502533Y-7583847D1*
X-508890Y-7580327D1*
X-508873Y-8224817D1*
Y-8287640D1*
X214330Y-8287623D1*
X314570D1*
X274813Y-8247867D1*
X269713Y-8246720D1*
X244520Y-8243647D1*
X221423Y-8240443D1*
X198823Y-8234720D1*
X176987Y-8226543D1*
X156183Y-8216017D1*
X136667Y-8203263D1*
X118670Y-8188440D1*
X102413Y-8171727D1*
X88093Y-8153327D1*
X75883Y-8133463D1*
X65933Y-8112380D1*
X58363Y-8090327D1*
X53267Y-8067577D1*
X53063Y-8065743D1*
X-279713Y-7732963D1*
X-295040Y-7715393D1*
X-307833Y-7695900D1*
X-317857Y-7674850D1*
X-324923Y-7652633D1*
X-328907Y-7629637D1*
X-4095653Y-3214817D2*
X-4082360Y-3202950D1*
X-4063347Y-3189473D1*
X-4042943Y-3178213D1*
X-4038713Y-3176237D1*
X-4034443Y-3174357D1*
X-4030130Y-3172573D1*
X-4025780Y-3170887D1*
X-4021390Y-3169300D1*
X-4016970Y-3167810D1*
X-4012513Y-3166420D1*
X-4008030Y-3165133D1*
X-4003517Y-3163943D1*
X-3998977Y-3162860D1*
X-3994417Y-3161873D1*
X-3989833Y-3160993D1*
X-3985233Y-3160213D1*
X-3980613Y-3159540D1*
X-3975983Y-3158970D1*
X-3972213Y-3158590D1*
X-4101197D1*
X-4097280Y-3179730D1*
X-4095543Y-3202837D1*
X-4095507Y-3206750D1*
X-4095960Y-3214777D1*
X-3933500Y-3158590D2*
X-3929413Y-3159007D1*
X-3924783Y-3159587D1*
X-3920167Y-3160270D1*
X-3915567Y-3161057D1*
X-3910987Y-3161943D1*
X-3906427Y-3162937D1*
X-3901890Y-3164030D1*
X-3897380Y-3165227D1*
X-3892897Y-3166523D1*
X-3888443Y-3167920D1*
X-3884023Y-3169417D1*
X-3879637Y-3171010D1*
X-3875290Y-3172703D1*
X-3870980Y-3174497D1*
X-3866713Y-3176383D1*
X-3862487Y-3178363D1*
X-3858310Y-3180440D1*
X-3855970Y-3181807D1*
X-3845813Y-3170913D1*
X-3832017Y-3158587D1*
X-3933443Y-3158590D1*
X-6242170Y-2290143D2*
X-6241220Y-2295730D1*
X-6112083Y-2424860D1*
X-6111550Y-2413533D1*
X-6108537Y-2390557D1*
X-6102970Y-2368067D1*
X-6094920Y-2346340D1*
X-6084487Y-2325650D1*
X-6071807Y-2306257D1*
X-6058460Y-2290133D1*
X-6242050Y-2290140D1*
X-5219313Y-2451103D2*
X-5224223Y-2444180D1*
X-5235497Y-2423783D1*
X-5237473Y-2419553D1*
X-5239357Y-2415283D1*
X-5241140Y-2410973D1*
X-5242830Y-2406623D1*
X-5244420Y-2402237D1*
X-5245910Y-2397813D1*
X-5247300Y-2393360D1*
X-5248593Y-2388873D1*
X-5249783Y-2384363D1*
X-5250870Y-2379823D1*
X-5251857Y-2375263D1*
X-5252740Y-2370680D1*
X-5253520Y-2366080D1*
X-5254197Y-2361463D1*
X-5254770Y-2356830D1*
X-5255240Y-2352190D1*
X-5255730Y-2345283D1*
Y-2547210D1*
X-5250360Y-2564243D1*
X-5247447Y-2579187D1*
X-5219330Y-2551070D1*
X-5219320Y-2451630D1*
X-4854643Y-2258390D2*
X-4847883Y-2278470D1*
X-4844143Y-2295803D1*
X-4754170Y-2385777D1*
X-4751103Y-2376367D1*
X-4742220Y-2354967D1*
X-4730997Y-2334693D1*
X-4717573Y-2315807D1*
X-4702123Y-2298540D1*
X-4684833Y-2283113D1*
X-4665927Y-2269720D1*
X-4645327Y-2258397D1*
X-4854540Y-2258390D1*
X-3492363Y-2325160D2*
X-3496267Y-2348137D1*
X-3502720Y-2370530D1*
X-3511640Y-2392060D1*
X-3522917Y-2412457D1*
X-3527803Y-2419343D1*
Y-2551073D1*
X-3450223Y-2628640D1*
X-3259507Y-2628650D1*
X-3267270Y-2626433D1*
X-3271717Y-2625017D1*
X-3276130Y-2623500D1*
X-3280507Y-2621883D1*
X-3284847Y-2620170D1*
X-3289147Y-2618357D1*
X-3293403Y-2616447D1*
X-3297620Y-2614443D1*
X-3301787Y-2612343D1*
X-3305907Y-2610150D1*
X-3309973Y-2607863D1*
X-3329367Y-2595183D1*
X-3347213Y-2580407D1*
X-3363297Y-2563727D1*
X-3377410Y-2545353D1*
X-3389380Y-2525513D1*
X-3399050Y-2504457D1*
X-3406303Y-2482450D1*
X-3411047Y-2459770D1*
X-3413223Y-2436703D1*
X-3412800Y-2413537D1*
X-3409787Y-2390560D1*
X-3404220Y-2368070D1*
X-3396170Y-2346343D1*
X-3385737Y-2325653D1*
X-3373057Y-2306260D1*
X-3358280Y-2288413D1*
X-3341600Y-2272330D1*
X-3323460Y-2258393D1*
X-3495647Y-2258390D1*
X-3492357Y-2278623D1*
X-3491053Y-2301877D1*
X-3492363Y-2325160D1*
X-3902903Y-2263987D2*
X-3901950Y-2258383D1*
X-4095523Y-2258390D1*
X-4095507Y-2456583D1*
X-3903287Y-2264360D1*
X-2159477Y-2281147D2*
X-2162767Y-2300510D1*
X-2169220Y-2322903D1*
X-2177557Y-2343027D1*
X-2122887Y-2397683D1*
X-2042950Y-2397680D1*
X-2159317Y-2281293D1*
X-2725417Y-2208227D2*
X-2688477Y-2171300D1*
X-2555610Y-2171320D1*
X-2561527Y-2185597D1*
X-2567980Y-2207990D1*
X-2569403Y-2216360D1*
X-2746130Y-2393087D1*
Y-2225880D1*
X-2725417Y-2208227D1*
X-2483657Y-3440740D2*
X-2494960Y-3432720D1*
X-2512337Y-3417190D1*
X-2527863Y-3399810D1*
X-2541347Y-3380803D1*
X-2552620Y-3360407D1*
X-2561537Y-3338873D1*
X-2567987Y-3316480D1*
X-2571890Y-3293503D1*
X-2573193Y-3270233D1*
X-2571883Y-3246967D1*
X-2567980Y-3223990D1*
X-2561527Y-3201597D1*
X-2553173Y-3181433D1*
X-2746353Y-3181443D1*
X-2746130Y-3190877D1*
X-2747447Y-3214160D1*
X-2751343Y-3237000D1*
X-2757773Y-3259260D1*
X-2766657Y-3280660D1*
X-2777880Y-3300933D1*
X-2791303Y-3319820D1*
X-2806753Y-3337087D1*
X-2824043Y-3352513D1*
X-2838203Y-3362547D1*
X-2818573Y-3366067D1*
X-2796323Y-3373033D1*
X-2775227Y-3382963D1*
X-2755677Y-3395670D1*
X-2738037Y-3410913D1*
X-2708233Y-3440717D1*
X-2484217Y-3440730D1*
X386677Y-1755673D2*
X372117Y-1747627D1*
X365230Y-1742740D1*
X34527Y-1742737D1*
X21597Y-1755683D1*
X386093Y-1755680D1*
X1375880Y-8052167D2*
Y-7933950D1*
X1274627Y-7933947D1*
X1278883Y-7942440D1*
X1287657Y-7964043D1*
X1294000Y-7986480D1*
X1297837Y-8009477D1*
X1299120Y-8032750D1*
X1298047Y-8052193D1*
X1375857Y-8052180D1*
X2192963Y-7805253D2*
X2237330D1*
X2207270Y-7775200D1*
X1881513Y-7775197D1*
X1914117Y-7807810D1*
X1933207Y-7811730D1*
X1955457Y-7818690D1*
X1976810Y-7828057D1*
X1997000Y-7839717D1*
X2015787Y-7853523D1*
X2032940Y-7869317D1*
X2048253Y-7886900D1*
X2061537Y-7906060D1*
X2072633Y-7926563D1*
X2081407Y-7948167D1*
X2087750Y-7970603D1*
X2091587Y-7993600D1*
X2092870Y-8016873D1*
X2091583Y-8040160D1*
X2089580Y-8052173D1*
X2169647Y-8052180D1*
X2169630Y-7805253D1*
X2192963D1*
X1863463Y-1540187D2*
X1886137Y-1545680D1*
X1909373Y-1547527D1*
X1938503D1*
X1960797Y-1545840D1*
X1983487Y-1540510D1*
X1989667Y-1538373D1*
X1992443Y-1539577D1*
X2015023Y-1545363D1*
X2038233Y-1547513D1*
X2061490Y-1545977D1*
X2072320Y-1543967D1*
X2077767Y-1545363D1*
X2100977Y-1547513D1*
X2124237Y-1545977D1*
X2146960Y-1540790D1*
X2168583Y-1532083D1*
X2188560Y-1520073D1*
X2197793Y-1512893D1*
X2196393Y-1528227D1*
X2196397Y-1551587D1*
X2198523Y-1574850D1*
X2202760Y-1597823D1*
X2209063Y-1620317D1*
X2217390Y-1642143D1*
X2227663Y-1663120D1*
X2239803Y-1683080D1*
X2253710Y-1701850D1*
X2269263Y-1719280D1*
X2286337Y-1735220D1*
X2304790Y-1749543D1*
X2314380Y-1755677D1*
X578687Y-1755690D1*
X593250Y-1747643D1*
X612257Y-1734157D1*
X629637Y-1718630D1*
X645167Y-1701253D1*
X658653Y-1682247D1*
X669927Y-1661853D1*
X678850Y-1640320D1*
X685303Y-1617927D1*
X689207Y-1594953D1*
X690517Y-1571667D1*
X690317Y-1562610D1*
X688620Y-1545647D1*
X688827Y-1545210D1*
X700813Y-1547093D1*
X724123Y-1547033D1*
X747130Y-1543293D1*
X767207Y-1536653D1*
X776340Y-1539750D1*
X786020Y-1542660D1*
X808983Y-1546800D1*
X823623Y-1547527D1*
X862427D1*
X881813Y-1546243D1*
X904627Y-1541350D1*
X909723Y-1539727D1*
X938870Y-1529860D1*
X951913Y-1524747D1*
X965540Y-1531637D1*
X986197Y-1540193D1*
X1008853Y-1545680D1*
X1032087Y-1547527D1*
X1051403D1*
X1061507Y-1547180D1*
X1084563Y-1543747D1*
X1096650Y-1539923D1*
X1097460Y-1540197D1*
X1120113Y-1545680D1*
X1143350Y-1547527D1*
X1172480D1*
X1195473Y-1545730D1*
X1197070Y-1545470D1*
X1219123Y-1547513D1*
X1242380Y-1545977D1*
X1265107Y-1540790D1*
X1276107Y-1536360D1*
X1286440Y-1540193D1*
X1309093Y-1545680D1*
X1332330Y-1547527D1*
X1339443Y-1547537D1*
X1343277Y-1553917D1*
X1358287Y-1571750D1*
X1375920Y-1586993D1*
X1395737Y-1599263D1*
X1417243Y-1608253D1*
X1439897Y-1613740D1*
X1463133Y-1615583D1*
X1473793D1*
X1497020Y-1613617D1*
X1519663Y-1608000D1*
X1538960Y-1600000D1*
X1558210Y-1590373D1*
X1571073Y-1583113D1*
X1589740Y-1569120D1*
X1596540Y-1562733D1*
X1616037Y-1543240D1*
X1625957Y-1532263D1*
X1631403Y-1525170D1*
X1644187Y-1531637D1*
X1664847Y-1540193D1*
X1687500Y-1545680D1*
X1710737Y-1547527D1*
X1749537D1*
X1772497Y-1545733D1*
X1795163Y-1540300D1*
X1816690Y-1531357D1*
X1829490Y-1524810D1*
X1842213Y-1531323D2*
X1829480Y-1524810D1*
X1842213Y-1531323D1*
X-3414210Y-4255490D2*
X-3635390Y-4034307D1*
X-3721203Y-4120150D1*
X-3821580Y-4220550D1*
X-3805853Y-4234617D1*
X-3790333Y-4252000D1*
X-3785557Y-4258740D1*
X-3785177Y-4258770D1*
X-3778373Y-4251163D1*
X-3761083Y-4235737D1*
X-3742177Y-4222343D1*
X-3721890Y-4211150D1*
X-3700477Y-4202300D1*
X-3678207Y-4195900D1*
X-3655360Y-4192037D1*
X-3632227Y-4190753D1*
X-3609093Y-4192070D1*
X-3586253Y-4195967D1*
X-3563993Y-4202397D1*
X-3542593Y-4211280D1*
X-3522320Y-4222503D1*
X-3503433Y-4235927D1*
X-3486167Y-4251377D1*
X-3470740Y-4268667D1*
X-3458980Y-4285263D1*
X-3455317Y-4283907D1*
X-3432877Y-4277577D1*
X-3409763Y-4274353D1*
X-3414210Y-4255490D1*
X-3394867Y-4272280D2*
X-3412603Y-4257073D1*
X-3394867Y-4272280D1*
X-3819797Y-2742927D2*
X-3766297Y-2796450D1*
X-3951507Y-2796440D1*
X-3852417Y-2697350D1*
X-4980857Y-2796450D2*
X-4827370D1*
X-4906333Y-2717473D1*
X-4911500Y-2724703D1*
X-4926743Y-2742343D1*
X-4980853Y-2796453D1*
X-5255730Y-2296937D2*
Y-2321760D1*
Y-2296937D1*
X-1702297Y-2184343D2*
X-1904477Y-1982163D1*
X-1974620Y-1982150D1*
X-1772430Y-2184320D1*
X-1702313Y-2184330D1*
X-36237Y-1400597D2*
X-31787Y-1400580D1*
X-31813Y-1333133D1*
Y-1320213D1*
X-39777Y-1314757D1*
X-57410Y-1299517D1*
X-60650Y-1295667D1*
X-710990Y-1297493D1*
X-2144050Y-1301553D1*
X-2133287Y-1312307D1*
X-2117960Y-1329877D1*
X-2105157Y-1349390D1*
X-2097380Y-1365007D1*
X-1793630D1*
Y-1644757D1*
X-1787540Y-1646337D1*
X-1765567Y-1654133D1*
X-1744860Y-1664847D1*
X-1725783Y-1678290D1*
X-1712617Y-1690163D1*
X-1396267Y-2006530D1*
X-1169120D1*
Y-1867713D1*
X-1189090Y-1863370D1*
X-1211063Y-1855573D1*
X-1231770Y-1844863D1*
X-1250847Y-1831417D1*
X-1264017Y-1819540D1*
X-1353733Y-1729820D1*
X-1392730Y-1729817D1*
X-1398327Y-1733780D1*
X-1418613Y-1744973D1*
X-1440027Y-1753823D1*
X-1462297Y-1760223D1*
X-1485143Y-1764087D1*
X-1508277Y-1765370D1*
X-1531410Y-1764053D1*
X-1554250Y-1760157D1*
X-1576510Y-1753727D1*
X-1597910Y-1744843D1*
X-1618183Y-1733620D1*
X-1637070Y-1720197D1*
X-1654337Y-1704747D1*
X-1669763Y-1687457D1*
X-1683157Y-1668550D1*
X-1694350Y-1648263D1*
X-1703200Y-1626850D1*
X-1709600Y-1604580D1*
X-1713463Y-1581733D1*
X-1714747Y-1558600D1*
X-1713430Y-1535467D1*
X-1709533Y-1512627D1*
X-1703103Y-1490367D1*
X-1694220Y-1468967D1*
X-1682997Y-1448693D1*
X-1669573Y-1429807D1*
X-1654123Y-1412540D1*
X-1636833Y-1397113D1*
X-1617927Y-1383720D1*
X-1597640Y-1372527D1*
X-1576227Y-1363677D1*
X-1553957Y-1357277D1*
X-1531110Y-1353413D1*
X-1507977Y-1352130D1*
X-1484843Y-1353447D1*
X-1462003Y-1357343D1*
X-1439743Y-1363773D1*
X-1418343Y-1372657D1*
X-1398070Y-1383880D1*
X-1392740Y-1387667D1*
X-1282957Y-1387680D1*
X-1265980Y-1388517D1*
X-1242990Y-1392393D1*
X-1220740Y-1399363D1*
X-1199643Y-1409293D1*
X-1180093Y-1422000D1*
X-1162453Y-1437243D1*
X-1077657Y-1522057D1*
X-1074173Y-1519407D1*
X-1054083Y-1507303D1*
X-1032803Y-1497440D1*
X-1010580Y-1489937D1*
X-987677Y-1484883D1*
X-964360Y-1482330D1*
X-940907Y-1482317D1*
X-917587Y-1484840D1*
X-894677Y-1489867D1*
X-872443Y-1497343D1*
X-851150Y-1507177D1*
X-831047Y-1519257D1*
X-812363Y-1533440D1*
X-795327Y-1549560D1*
X-780130Y-1567427D1*
X-766957Y-1586833D1*
X-755957Y-1607550D1*
X-747263Y-1629333D1*
X-740973Y-1651930D1*
X-737163Y-1675073D1*
X-735880Y-1698627D1*
X-737137Y-1721913D1*
X-739437Y-1736000D1*
X-735880Y-1736007D1*
Y-1771577D1*
X-496763Y-1771557D1*
X-496743Y-1714537D1*
Y-1487630D1*
X-194207D1*
X-157280Y-1450703D1*
X-139710Y-1435377D1*
X-120217Y-1422583D1*
X-99167Y-1412560D1*
X-76950Y-1405493D1*
X-53953Y-1401510D1*
X-36237Y-1400597D1*
X-7017800Y-4033273D2*
X-6809840Y-4241217D1*
X-6792137Y-4256393D1*
X-6772630Y-4269170D1*
X-6751647Y-4279333D1*
X-6729530Y-4286717D1*
X-6706647Y-4291197D1*
X-6683377Y-4292697D1*
X-6226243Y-4292710D1*
X-6226230Y-4372357D1*
X-6825090Y-4369640D1*
X-6828150Y-4351547D1*
X-6834550Y-4329277D1*
X-6843400Y-4307863D1*
X-6854593Y-4287577D1*
X-6867987Y-4268670D1*
X-6883413Y-4251380D1*
X-6900680Y-4235930D1*
X-6919567Y-4222507D1*
X-6939840Y-4211283D1*
X-6961240Y-4202400D1*
X-6983500Y-4195970D1*
X-7006340Y-4192073D1*
X-7029473Y-4190757D1*
X-7052607Y-4192040D1*
X-7075453Y-4195903D1*
X-7097723Y-4202303D1*
X-7119137Y-4211153D1*
X-7139423Y-4222347D1*
X-7158330Y-4235740D1*
X-7175620Y-4251167D1*
X-7181247Y-4257457D1*
X-7202097Y-4248847D1*
X-7224490Y-4242393D1*
X-7247467Y-4238490D1*
X-7270733Y-4237180D1*
X-7294003Y-4238483D1*
X-7316980Y-4242387D1*
X-7339373Y-4248837D1*
X-7360907Y-4257753D1*
X-7381303Y-4269027D1*
X-7400310Y-4282510D1*
X-7417690Y-4298037D1*
X-7433220Y-4315413D1*
X-7446707Y-4334420D1*
X-7457983Y-4354817D1*
X-7462123Y-4363973D1*
X-7462133Y-3509167D1*
X-7457997Y-3519157D1*
X-7446723Y-3539553D1*
X-7433240Y-3558560D1*
X-7417713Y-3575940D1*
X-7400337Y-3591470D1*
X-7381330Y-3604957D1*
X-7360933Y-3616233D1*
X-7339403Y-3625153D1*
X-7317010Y-3631607D1*
X-7294033Y-3635510D1*
X-7270767Y-3636820D1*
X-7247497Y-3635517D1*
X-7224520Y-3631613D1*
X-7202127Y-3625163D1*
X-7180593Y-3616247D1*
X-7160197Y-3604973D1*
X-7141190Y-3591490D1*
X-7123810Y-3575963D1*
X-7108280Y-3558587D1*
X-7094793Y-3539580D1*
X-7083517Y-3519183D1*
X-7074597Y-3497653D1*
X-7068143Y-3475260D1*
X-7064240Y-3452283D1*
X-7062930Y-3429000D1*
X-7064233Y-3405747D1*
X-7066677Y-3391363D1*
X-7066373Y-3391267D1*
X-7062873Y-3392280D1*
X-7040033Y-3396177D1*
X-7016900Y-3397493D1*
X-6993767Y-3396210D1*
X-6970920Y-3392347D1*
X-6948650Y-3385947D1*
X-6927237Y-3377097D1*
X-6906950Y-3365903D1*
X-6888043Y-3352510D1*
X-6870753Y-3337083D1*
X-6855303Y-3319817D1*
X-6841880Y-3300930D1*
X-6830657Y-3280657D1*
X-6821773Y-3259257D1*
X-6818323Y-3248520D1*
X-6728383Y-3158590D1*
X-6526260D1*
X-6535407Y-3162377D1*
X-6555803Y-3173650D1*
X-6574810Y-3187133D1*
X-6592190Y-3202660D1*
X-6607720Y-3220037D1*
X-6621207Y-3239043D1*
X-6632483Y-3259440D1*
X-6641403Y-3280970D1*
X-6647857Y-3303363D1*
X-6651760Y-3326340D1*
X-6653070Y-3349607D1*
X-6651767Y-3372877D1*
X-6647863Y-3395853D1*
X-6641413Y-3418247D1*
X-6632497Y-3439780D1*
X-6621223Y-3460177D1*
X-6607740Y-3479183D1*
X-6592213Y-3496563D1*
X-6574837Y-3512093D1*
X-6555830Y-3525580D1*
X-6535433Y-3536857D1*
X-6513903Y-3545777D1*
X-6491510Y-3552230D1*
X-6468533Y-3556133D1*
X-6445267Y-3557443D1*
X-6421997Y-3556140D1*
X-6399020Y-3552237D1*
X-6376627Y-3545787D1*
X-6355093Y-3536870D1*
X-6334697Y-3525597D1*
X-6315690Y-3512113D1*
X-6298310Y-3496587D1*
X-6282780Y-3479210D1*
X-6269293Y-3460203D1*
X-6258017Y-3439807D1*
X-6249097Y-3418277D1*
X-6242643Y-3395883D1*
X-6238740Y-3372907D1*
X-6237430Y-3349623D1*
X-6238733Y-3326370D1*
X-6242637Y-3303393D1*
X-6249087Y-3281000D1*
X-6258003Y-3259467D1*
X-6269277Y-3239070D1*
X-6282760Y-3220063D1*
X-6298287Y-3202683D1*
X-6315663Y-3187153D1*
X-6334670Y-3173667D1*
X-6355067Y-3162390D1*
X-6363437Y-3158590D1*
X-6109270Y-3158600D1*
X-6110803Y-3167590D1*
X-6112120Y-3190723D1*
X-6110837Y-3213857D1*
X-6106973Y-3236703D1*
X-6100573Y-3258973D1*
X-6091723Y-3280387D1*
X-6080530Y-3300673D1*
X-6067137Y-3319580D1*
X-6051710Y-3336870D1*
X-6034443Y-3352320D1*
X-6015557Y-3365743D1*
X-5995283Y-3376967D1*
X-5973883Y-3385850D1*
X-5951623Y-3392280D1*
X-5938560Y-3394847D1*
X-5938693Y-3397233D1*
X-5937390Y-3420503D1*
X-5933487Y-3443480D1*
X-5927037Y-3465873D1*
X-5918120Y-3487407D1*
X-5906847Y-3507803D1*
X-5893363Y-3526810D1*
X-5877837Y-3544190D1*
X-5860460Y-3559720D1*
X-5841453Y-3573207D1*
X-5821057Y-3584483D1*
X-5799527Y-3593403D1*
X-5777133Y-3599857D1*
X-5754157Y-3603760D1*
X-5730890Y-3605070D1*
X-5707620Y-3603767D1*
X-5684643Y-3599863D1*
X-5662250Y-3593413D1*
X-5640717Y-3584497D1*
X-5620320Y-3573223D1*
X-5601313Y-3559740D1*
X-5583933Y-3544213D1*
X-5568403Y-3526837D1*
X-5554917Y-3507830D1*
X-5543640Y-3487433D1*
X-5534720Y-3465903D1*
X-5528267Y-3443510D1*
X-5524363Y-3420533D1*
X-5523053Y-3397250D1*
X-5524357Y-3373997D1*
X-5527403Y-3356070D1*
X-5527243Y-3355660D1*
X-5522793Y-3352510D1*
X-5505503Y-3337083D1*
X-5490053Y-3319817D1*
X-5476630Y-3300930D1*
X-5465407Y-3280657D1*
X-5456523Y-3259257D1*
X-5453073Y-3248520D1*
X-5363160Y-3158590D1*
X-5129260Y-3158593D1*
X-5138407Y-3162380D1*
X-5158803Y-3173653D1*
X-5177810Y-3187137D1*
X-5195190Y-3202663D1*
X-5210720Y-3220040D1*
X-5224207Y-3239047D1*
X-5235483Y-3259443D1*
X-5244403Y-3280973D1*
X-5250857Y-3303367D1*
X-5254760Y-3326343D1*
X-5256070Y-3349610D1*
X-5254767Y-3372880D1*
X-5250863Y-3395857D1*
X-5244413Y-3418250D1*
X-5235497Y-3439783D1*
X-5224223Y-3460180D1*
X-5210740Y-3479187D1*
X-5195213Y-3496567D1*
X-5177837Y-3512097D1*
X-5158830Y-3525583D1*
X-5138433Y-3536860D1*
X-5116903Y-3545780D1*
X-5094510Y-3552233D1*
X-5071533Y-3556137D1*
X-5048267Y-3557447D1*
X-5024997Y-3556143D1*
X-5002020Y-3552240D1*
X-4979627Y-3545790D1*
X-4958093Y-3536873D1*
X-4937697Y-3525600D1*
X-4918690Y-3512117D1*
X-4901310Y-3496590D1*
X-4885780Y-3479213D1*
X-4872293Y-3460207D1*
X-4861017Y-3439810D1*
X-4852097Y-3418280D1*
X-4845643Y-3395887D1*
X-4841740Y-3372910D1*
X-4840430Y-3349627D1*
X-4841733Y-3326373D1*
X-4845637Y-3303397D1*
X-4852087Y-3281003D1*
X-4861003Y-3259470D1*
X-4872277Y-3239073D1*
X-4885760Y-3220067D1*
X-4901287Y-3202687D1*
X-4918663Y-3187157D1*
X-4937670Y-3173670D1*
X-4958067Y-3162393D1*
X-4967253Y-3158587D1*
X-4756950Y-3158603D1*
X-4757533Y-3160627D1*
X-4761430Y-3183467D1*
X-4762747Y-3206600D1*
X-4761463Y-3229733D1*
X-4757600Y-3252580D1*
X-4751200Y-3274850D1*
X-4742350Y-3296263D1*
X-4731157Y-3316550D1*
X-4727193Y-3322147D1*
X-4727197Y-3413063D1*
X-4726283Y-3430783D1*
X-4722300Y-3453757D1*
X-4715233Y-3475973D1*
X-4705210Y-3497023D1*
X-4692417Y-3516517D1*
X-4677090Y-3534087D1*
X-4493610Y-3717570D1*
X-4480430Y-3729457D1*
X-4461370Y-3742887D1*
X-4440663Y-3753597D1*
X-4418690Y-3761393D1*
X-4395860Y-3766130D1*
X-4372600Y-3767720D1*
X-4184093D1*
X-4166363Y-3766807D1*
X-4143390Y-3762823D1*
X-4121173Y-3755757D1*
X-4100123Y-3745733D1*
X-4080630Y-3732940D1*
X-4062907Y-3717463D1*
X-3914970Y-3569527D1*
X-3906643Y-3568113D1*
X-3884250Y-3561663D1*
X-3862717Y-3552747D1*
X-3842320Y-3541473D1*
X-3823313Y-3527990D1*
X-3805933Y-3512463D1*
X-3796150Y-3501517D1*
X-3795690Y-3501443D1*
X-3789057Y-3505110D1*
X-3767527Y-3514030D1*
X-3745133Y-3520483D1*
X-3722157Y-3524387D1*
X-3698890Y-3525697D1*
X-3675620Y-3524393D1*
X-3652643Y-3520490D1*
X-3630250Y-3514040D1*
X-3608717Y-3505123D1*
X-3588320Y-3493850D1*
X-3569313Y-3480367D1*
X-3551933Y-3464840D1*
X-3536403Y-3447463D1*
X-3522917Y-3428457D1*
X-3511640Y-3408060D1*
X-3502720Y-3386530D1*
X-3496267Y-3364137D1*
X-3492363Y-3341160D1*
X-3491053Y-3317877D1*
X-3492357Y-3294623D1*
X-3496260Y-3271647D1*
X-3502710Y-3249253D1*
X-3511627Y-3227720D1*
X-3522900Y-3207323D1*
X-3536383Y-3188317D1*
X-3551910Y-3170937D1*
X-3565740Y-3158577D1*
X-3422960Y-3158590D1*
X-3410520Y-3158603D1*
X-3412053Y-3167593D1*
X-3413370Y-3190727D1*
X-3412087Y-3213860D1*
X-3408223Y-3236707D1*
X-3401823Y-3258977D1*
X-3392973Y-3280390D1*
X-3381780Y-3300677D1*
X-3377817Y-3306273D1*
X-3377820Y-3365437D1*
X-3376907Y-3383160D1*
X-3372923Y-3406133D1*
X-3365857Y-3428350D1*
X-3355833Y-3449400D1*
X-3343040Y-3468893D1*
X-3327713Y-3486463D1*
X-3236240Y-3577930D1*
X-3240000Y-3576843D1*
X-3262840Y-3572947D1*
X-3285973Y-3571630D1*
X-3309107Y-3572913D1*
X-3331953Y-3576777D1*
X-3333503Y-3577123D1*
Y-3571630D1*
X-3746743D1*
Y-3635487D1*
X-3751093Y-3638983D1*
X-3763467Y-3650273D1*
X-4027883Y-3914680D1*
X-4600533Y-3914690D1*
X-4592280Y-3899783D1*
X-4583397Y-3878383D1*
X-4576967Y-3856123D1*
X-4573070Y-3833283D1*
X-4571753Y-3810000D1*
X-4573037Y-3787017D1*
X-4576900Y-3764170D1*
X-4583300Y-3741900D1*
X-4592150Y-3720487D1*
X-4603343Y-3700200D1*
X-4616737Y-3681293D1*
X-4632163Y-3664003D1*
X-4649430Y-3648553D1*
X-4668317Y-3635130D1*
X-4688590Y-3623907D1*
X-4709990Y-3615023D1*
X-4732250Y-3608593D1*
X-4755090Y-3604697D1*
X-4778223Y-3603380D1*
X-4801357Y-3604663D1*
X-4824203Y-3608527D1*
X-4846473Y-3614927D1*
X-4867887Y-3623777D1*
X-4888173Y-3634970D1*
X-4905477Y-3647097D1*
X-4922317Y-3635130D1*
X-4942590Y-3623907D1*
X-4963990Y-3615023D1*
X-4986250Y-3608593D1*
X-5009090Y-3604697D1*
X-5032223Y-3603380D1*
X-5055357Y-3604663D1*
X-5078203Y-3608527D1*
X-5079753Y-3608873D1*
Y-3603380D1*
X-5492993D1*
X-5492990Y-3760547D1*
X-5662987Y-3930557D1*
X-6214337Y-3930550D1*
X-6206880Y-3920057D1*
X-6195657Y-3899783D1*
X-6186773Y-3878383D1*
X-6180343Y-3856123D1*
X-6176447Y-3833283D1*
X-6175130Y-3810000D1*
X-6176413Y-3787017D1*
X-6180277Y-3764170D1*
X-6186677Y-3741900D1*
X-6195527Y-3720487D1*
X-6206720Y-3700200D1*
X-6220113Y-3681293D1*
X-6235540Y-3664003D1*
X-6252807Y-3648553D1*
X-6271693Y-3635130D1*
X-6291967Y-3623907D1*
X-6313367Y-3615023D1*
X-6335627Y-3608593D1*
X-6358467Y-3604697D1*
X-6381600Y-3603380D1*
X-6404733Y-3604663D1*
X-6427580Y-3608527D1*
X-6449850Y-3614927D1*
X-6471263Y-3623777D1*
X-6491550Y-3634970D1*
X-6508853Y-3647097D1*
X-6525693Y-3635130D1*
X-6545967Y-3623907D1*
X-6567367Y-3615023D1*
X-6589627Y-3608593D1*
X-6612467Y-3604697D1*
X-6635600Y-3603380D1*
X-6658733Y-3604663D1*
X-6681580Y-3608527D1*
X-6683130Y-3608873D1*
Y-3603380D1*
X-7096370D1*
Y-4016620D1*
X-7032513D1*
X-7017800Y-4033273D1*
X-3831180Y-2730363D2*
X-3844720Y-2711327D1*
X-3831180Y-2730363D1*
X-555433Y-4398250D2*
X-653630Y-4397800D1*
Y-4174880D1*
X-1066870D1*
X-1066883Y-4395913D1*
X-1077200Y-4395870D1*
X-1117243Y-4355827D1*
X-1130420Y-4343943D1*
X-1149480Y-4330517D1*
X-1170187Y-4319803D1*
X-1192160Y-4312007D1*
X-1214990Y-4307270D1*
X-1238250Y-4305680D1*
X-1619003Y-4305683D1*
X-1611870Y-4298570D1*
X-1381187D1*
X-1363463Y-4297657D1*
X-1340490Y-4293673D1*
X-1318273Y-4286607D1*
X-1297223Y-4276583D1*
X-1277730Y-4263790D1*
X-1260160Y-4248463D1*
X-1053830Y-4042133D1*
X-1041943Y-4028957D1*
X-1028517Y-4009897D1*
X-1017803Y-3989190D1*
X-1010007Y-3967217D1*
X-1005270Y-3944387D1*
X-1003680Y-3921127D1*
X-1003667Y-3893637D1*
X-999880Y-3888307D1*
X-988657Y-3868033D1*
X-979773Y-3846633D1*
X-973343Y-3824373D1*
X-969447Y-3801533D1*
X-968130Y-3778250D1*
X-969413Y-3755267D1*
X-973277Y-3732420D1*
X-979677Y-3710150D1*
X-988527Y-3688737D1*
X-999720Y-3668450D1*
X-1013113Y-3649543D1*
X-1028540Y-3632253D1*
X-1045807Y-3616803D1*
X-1064693Y-3603380D1*
X-1084967Y-3592157D1*
X-1106367Y-3583273D1*
X-1128627Y-3576843D1*
X-1151467Y-3572947D1*
X-1174600Y-3571630D1*
X-1197733Y-3572913D1*
X-1220580Y-3576777D1*
X-1242850Y-3583177D1*
X-1264263Y-3592027D1*
X-1284550Y-3603220D1*
X-1301853Y-3615347D1*
X-1318693Y-3603380D1*
X-1338967Y-3592157D1*
X-1360367Y-3583273D1*
X-1382627Y-3576843D1*
X-1405467Y-3572947D1*
X-1428600Y-3571630D1*
X-1451733Y-3572913D1*
X-1474580Y-3576777D1*
X-1476130Y-3577123D1*
Y-3571630D1*
X-1889370D1*
X-1889373Y-3728803D1*
X-2107013Y-3946430D1*
X-2912667Y-3946440D1*
X-2903417Y-3939887D1*
X-2886127Y-3924460D1*
X-2870677Y-3907193D1*
X-2857253Y-3888307D1*
X-2846030Y-3868033D1*
X-2837147Y-3846633D1*
X-2830717Y-3824373D1*
X-2826820Y-3801533D1*
X-2825503Y-3778250D1*
X-2825603Y-3776433D1*
X-2802340Y-3781280D1*
X-2778657Y-3782870D1*
X-2405367D1*
X-2387637Y-3781957D1*
X-2364663Y-3777973D1*
X-2342447Y-3770907D1*
X-2321397Y-3760883D1*
X-2301903Y-3748090D1*
X-2284333Y-3732763D1*
X-2105220Y-3553653D1*
X-2096893Y-3552240D1*
X-2074500Y-3545790D1*
X-2052967Y-3536873D1*
X-2032570Y-3525600D1*
X-2013563Y-3512117D1*
X-1996183Y-3496590D1*
X-1980653Y-3479213D1*
X-1967167Y-3460207D1*
X-1955890Y-3439810D1*
X-1946970Y-3418280D1*
X-1940517Y-3395887D1*
X-1936613Y-3372910D1*
X-1935303Y-3349627D1*
X-1935767Y-3335763D1*
X-1938623Y-3312637D1*
X-1944050Y-3289970D1*
X-1951980Y-3268057D1*
X-1962317Y-3247170D1*
X-1974923Y-3227570D1*
X-1989647Y-3209503D1*
X-2006300Y-3193200D1*
X-2021357Y-3181457D1*
X-1613937Y-3181443D1*
X-1004887D1*
X-1001710Y-3181957D1*
X-978347Y-3182697D1*
X-955080Y-3180447D1*
X-932290Y-3175237D1*
X-910357Y-3167157D1*
X-889637Y-3156340D1*
X-870467Y-3142960D1*
X-853167Y-3127237D1*
X-838020Y-3109433D1*
X-825277Y-3089840D1*
X-815140Y-3068777D1*
X-807780Y-3046590D1*
X-803320Y-3023643D1*
X-801830Y-3000317D1*
X-801887Y-2996820D1*
X-124890Y-2996833D1*
X-128100Y-3007943D1*
X-131997Y-3030783D1*
X-133313Y-3053917D1*
X-132030Y-3077050D1*
X-128167Y-3099897D1*
X-121767Y-3122167D1*
X-112917Y-3143580D1*
X-101723Y-3163867D1*
X-89597Y-3181170D1*
X-101563Y-3198010D1*
X-112787Y-3218283D1*
X-121670Y-3239683D1*
X-128100Y-3261943D1*
X-131997Y-3284783D1*
X-133313Y-3307917D1*
X-132030Y-3331050D1*
X-128167Y-3353897D1*
X-121767Y-3376167D1*
X-112917Y-3397580D1*
X-101723Y-3417867D1*
X-89597Y-3435170D1*
X-101563Y-3452010D1*
X-112787Y-3472283D1*
X-121670Y-3493683D1*
X-128100Y-3515943D1*
X-131997Y-3538783D1*
X-133313Y-3561917D1*
X-132030Y-3585050D1*
X-128167Y-3607897D1*
X-121767Y-3630167D1*
X-112917Y-3651580D1*
X-101723Y-3671867D1*
X-89597Y-3689170D1*
X-101563Y-3706010D1*
X-112787Y-3726283D1*
X-121670Y-3747683D1*
X-128100Y-3769943D1*
X-131997Y-3792783D1*
X-133313Y-3815917D1*
X-132030Y-3839050D1*
X-128167Y-3861897D1*
X-121767Y-3884167D1*
X-112917Y-3905580D1*
X-101723Y-3925867D1*
X-89597Y-3943170D1*
X-101563Y-3960010D1*
X-112787Y-3980283D1*
X-121670Y-4001683D1*
X-128100Y-4023943D1*
X-131997Y-4046783D1*
X-133313Y-4069917D1*
X-132030Y-4093050D1*
X-128167Y-4115897D1*
X-121767Y-4138167D1*
X-112917Y-4159580D1*
X-101723Y-4179867D1*
X-89597Y-4197170D1*
X-101563Y-4214010D1*
X-112787Y-4234283D1*
X-121670Y-4255683D1*
X-128100Y-4277943D1*
X-131997Y-4300783D1*
X-133313Y-4323917D1*
X-132030Y-4347050D1*
X-128167Y-4369897D1*
X-121767Y-4392167D1*
X-112917Y-4413580D1*
X-101723Y-4433867D1*
X-89597Y-4451170D1*
X-101563Y-4468010D1*
X-112787Y-4488283D1*
X-121670Y-4509683D1*
X-128100Y-4531943D1*
X-131997Y-4554783D1*
X-133313Y-4577917D1*
X-132030Y-4601050D1*
X-128167Y-4623897D1*
X-121767Y-4646167D1*
X-112917Y-4667580D1*
X-101723Y-4687867D1*
X-89597Y-4705170D1*
X-101563Y-4722010D1*
X-112787Y-4742283D1*
X-121670Y-4763683D1*
X-128100Y-4785943D1*
X-131997Y-4808783D1*
X-133313Y-4831917D1*
X-132030Y-4855050D1*
X-128167Y-4877897D1*
X-121767Y-4900167D1*
X-112917Y-4921580D1*
X-101723Y-4941867D1*
X-89597Y-4959170D1*
X-101563Y-4976010D1*
X-112787Y-4996283D1*
X-121670Y-5017683D1*
X-128100Y-5039943D1*
X-131997Y-5062783D1*
X-133313Y-5085917D1*
X-132030Y-5109050D1*
X-128167Y-5131897D1*
X-121767Y-5154167D1*
X-112917Y-5175580D1*
X-101723Y-5195867D1*
X-89597Y-5213170D1*
X-101563Y-5230010D1*
X-112787Y-5250283D1*
X-121670Y-5271683D1*
X-128100Y-5293943D1*
X-131997Y-5316783D1*
X-133313Y-5339917D1*
X-132030Y-5363050D1*
X-128167Y-5385897D1*
X-121767Y-5408167D1*
X-112917Y-5429580D1*
X-101723Y-5449867D1*
X-89597Y-5467170D1*
X-101563Y-5484010D1*
X-112787Y-5504283D1*
X-121670Y-5525683D1*
X-128100Y-5547943D1*
X-131997Y-5570783D1*
X-133313Y-5593917D1*
X-132030Y-5617050D1*
X-128167Y-5639897D1*
X-121767Y-5662167D1*
X-112917Y-5683580D1*
X-101723Y-5703867D1*
X-89597Y-5721170D1*
X-101563Y-5738010D1*
X-112787Y-5758283D1*
X-121670Y-5779683D1*
X-128100Y-5801943D1*
X-131997Y-5824783D1*
X-133313Y-5847917D1*
X-132030Y-5871050D1*
X-128167Y-5893897D1*
X-121767Y-5916167D1*
X-112917Y-5937580D1*
X-101723Y-5957867D1*
X-89597Y-5975170D1*
X-101563Y-5992010D1*
X-112787Y-6012283D1*
X-121670Y-6033683D1*
X-128100Y-6055943D1*
X-131997Y-6078783D1*
X-133313Y-6101917D1*
X-132200Y-6122000D1*
X-146780Y-6107390D1*
Y-5238473D1*
X-147693Y-5220743D1*
X-151677Y-5197770D1*
X-158743Y-5175553D1*
X-168767Y-5154503D1*
X-181560Y-5135010D1*
X-196887Y-5117437D1*
X-508873Y-4805460D1*
Y-4445000D1*
X-509380Y-4438153D1*
X-518297Y-4416853D1*
X-536343Y-4402417D1*
X-555433Y-4398250D1*
X-4613543Y-1415067D2*
X-4506720Y-1308240D1*
X-7140467Y-1315693D1*
X-7136877Y-1327923D1*
X-7132167Y-1350713D1*
X-7129330Y-1373807D1*
X-7128387Y-1397000D1*
X-7129340Y-1420307D1*
X-7132187Y-1443403D1*
X-7136903Y-1466187D1*
X-7143467Y-1488513D1*
X-7151823Y-1510230D1*
X-7161923Y-1531190D1*
X-7173700Y-1551260D1*
X-7187070Y-1570303D1*
X-7201950Y-1588193D1*
X-7218240Y-1604810D1*
X-7235827Y-1620047D1*
X-7254600Y-1633797D1*
X-7274430Y-1645970D1*
X-7295187Y-1656487D1*
X-7316730Y-1665277D1*
X-7338920Y-1672283D1*
X-7361607Y-1677457D1*
X-7384640Y-1680763D1*
X-7407867Y-1682183D1*
X-7431130Y-1681703D1*
X-7454277Y-1679330D1*
X-7462120Y-1677870D1*
X-7462123Y-2350973D1*
X-7456843Y-2339090D1*
X-7445620Y-2318817D1*
X-7432197Y-2299930D1*
X-7416747Y-2282663D1*
X-7399457Y-2267237D1*
X-7380550Y-2253843D1*
X-7360263Y-2242650D1*
X-7338850Y-2233800D1*
X-7316580Y-2227400D1*
X-7293733Y-2223537D1*
X-7270600Y-2222253D1*
X-7247467Y-2223570D1*
X-7224627Y-2227467D1*
X-7223387Y-2227827D1*
X-7223370Y-2222253D1*
X-6810130D1*
Y-2635493D1*
X-7223370D1*
Y-2630003D1*
X-7224920Y-2630347D1*
X-7247767Y-2634210D1*
X-7270900Y-2635493D1*
X-7294033Y-2634177D1*
X-7316873Y-2630280D1*
X-7339133Y-2623850D1*
X-7360533Y-2614967D1*
X-7380807Y-2603743D1*
X-7399693Y-2590320D1*
X-7416960Y-2574870D1*
X-7432387Y-2557580D1*
X-7445780Y-2538673D1*
X-7456973Y-2518387D1*
X-7462117Y-2505943D1*
X-7462123Y-3112997D1*
X-7456843Y-3101090D1*
X-7445620Y-3080817D1*
X-7432197Y-3061930D1*
X-7416747Y-3044663D1*
X-7399457Y-3029237D1*
X-7380550Y-3015843D1*
X-7360263Y-3004650D1*
X-7338850Y-2995800D1*
X-7316580Y-2989400D1*
X-7293733Y-2985537D1*
X-7270600Y-2984253D1*
X-7247467Y-2985570D1*
X-7224627Y-2989467D1*
X-7202367Y-2995897D1*
X-7180967Y-3004780D1*
X-7160693Y-3016003D1*
X-7143853Y-3027970D1*
X-7126550Y-3015843D1*
X-7106263Y-3004650D1*
X-7084850Y-2995800D1*
X-7074867Y-2992930D1*
X-6931433Y-2849483D1*
X-6913917Y-2834093D1*
X-6894570Y-2821080D1*
X-6873710Y-2810660D1*
X-6851683Y-2803007D1*
X-6828857Y-2798250D1*
X-6805587Y-2796463D1*
X-6224337Y-2796450D1*
X-6482790Y-2538013D1*
X-6491510Y-2536230D1*
X-6513903Y-2529777D1*
X-6535433Y-2520857D1*
X-6555830Y-2509580D1*
X-6574837Y-2496093D1*
X-6592213Y-2480563D1*
X-6607740Y-2463183D1*
X-6621223Y-2444177D1*
X-6632497Y-2423780D1*
X-6641413Y-2402247D1*
X-6647863Y-2379853D1*
X-6651767Y-2356877D1*
X-6653070Y-2333607D1*
X-6651760Y-2310340D1*
X-6647857Y-2287363D1*
X-6641403Y-2264970D1*
X-6632483Y-2243440D1*
X-6621207Y-2223043D1*
X-6607720Y-2204037D1*
X-6592190Y-2186660D1*
X-6574810Y-2171133D1*
X-6555803Y-2157650D1*
X-6539050Y-2148390D1*
X-6650803Y-2036627D1*
X-6751497Y-2036623D1*
Y-1646383D1*
X-6361257D1*
Y-1655477D1*
X-6342370Y-1650527D1*
X-6319500Y-1647137D1*
X-6296393Y-1646477D1*
X-6273370Y-1648553D1*
X-6265087Y-1650303D1*
X-6266703Y-1646857D1*
X-6274960Y-1624987D1*
X-6280350Y-1602243D1*
X-6282790Y-1578997D1*
X-6282237Y-1555627D1*
X-6278700Y-1532520D1*
X-6272237Y-1510057D1*
X-6262957Y-1488603D1*
X-6251007Y-1468513D1*
X-6236587Y-1450117D1*
X-6219930Y-1433713D1*
X-6201313Y-1419577D1*
X-6181043Y-1407933D1*
X-6159453Y-1398980D1*
X-6136890Y-1392863D1*
X-6113733Y-1389680D1*
X-6090360Y-1389483D1*
X-6081497Y-1390550D1*
X-5376370D1*
X-5373283Y-1390050D1*
X-5349920Y-1389293D1*
X-5326653Y-1391530D1*
X-5303863Y-1396723D1*
X-5281923Y-1404790D1*
X-5261193Y-1415593D1*
X-5242020Y-1428963D1*
X-5224710Y-1444673D1*
X-5209550Y-1462467D1*
X-5196793Y-1482053D1*
X-5186643Y-1503110D1*
X-5179270Y-1525293D1*
X-5174797Y-1548237D1*
X-5173290Y-1571620D1*
X-5174780Y-1594890D1*
X-5179240Y-1617837D1*
X-5186600Y-1640023D1*
X-5189660Y-1646380D1*
X-4996003Y-1646383D1*
Y-1655667D1*
X-4977117Y-1650527D1*
X-4954247Y-1647137D1*
X-4931140Y-1646477D1*
X-4908117Y-1648553D1*
X-4885497Y-1653337D1*
X-4863603Y-1660763D1*
X-4842743Y-1670727D1*
X-4823210Y-1683090D1*
X-4805273Y-1697673D1*
X-4789187Y-1714277D1*
X-4775177Y-1732667D1*
X-4763440Y-1752587D1*
X-4754143Y-1773750D1*
X-4747413Y-1795870D1*
X-4743350Y-1818627D1*
X-4742003Y-1841503D1*
X-4743397Y-1864780D1*
X-4747510Y-1887530D1*
X-4754283Y-1909633D1*
X-4757213Y-1916263D1*
X-4687753Y-1916250D1*
X-4687743Y-1614633D1*
X-4663703D1*
X-4663693Y-1536073D1*
X-4662103Y-1512813D1*
X-4657367Y-1489983D1*
X-4649570Y-1468010D1*
X-4638857Y-1447303D1*
X-4625413Y-1428227D1*
X-4613543Y-1415067D1*
X2819960Y-7528030D2*
X2806513Y-7547107D1*
X2795803Y-7567813D1*
X2788007Y-7589787D1*
X2783270Y-7612617D1*
X2781680Y-7635877D1*
X2781687Y-7834887D1*
X2780957Y-7834567D1*
X2758707Y-7827607D1*
X2739867Y-7823927D1*
X2398550Y-7482620D1*
X2380910Y-7467377D1*
X2361360Y-7454670D1*
X2340263Y-7444740D1*
X2318013Y-7437770D1*
X2295000Y-7433893D1*
X2278050Y-7433057D1*
X1063870D1*
Y-7191133D1*
X1028320Y-7191150D1*
X1028337Y-2980947D1*
X2441130Y-2980937D1*
X2553627Y-3093450D1*
X2554717Y-3099897D1*
X2561117Y-3122167D1*
X2569967Y-3143580D1*
X2581160Y-3163867D1*
X2593287Y-3181170D1*
X2581320Y-3198010D1*
X2570097Y-3218283D1*
X2561213Y-3239683D1*
X2554783Y-3261943D1*
X2550887Y-3284783D1*
X2549570Y-3307917D1*
X2550853Y-3331050D1*
X2554717Y-3353897D1*
X2561117Y-3376167D1*
X2569967Y-3397580D1*
X2581160Y-3417867D1*
X2593287Y-3435170D1*
X2581320Y-3452010D1*
X2570097Y-3472283D1*
X2561213Y-3493683D1*
X2554783Y-3515943D1*
X2550887Y-3538783D1*
X2549570Y-3561917D1*
X2550853Y-3585050D1*
X2554717Y-3607897D1*
X2561117Y-3630167D1*
X2569967Y-3651580D1*
X2581160Y-3671867D1*
X2593287Y-3689170D1*
X2581320Y-3706010D1*
X2570097Y-3726283D1*
X2561213Y-3747683D1*
X2554783Y-3769943D1*
X2550887Y-3792783D1*
X2549570Y-3815917D1*
X2550853Y-3839050D1*
X2554717Y-3861897D1*
X2561117Y-3884167D1*
X2569967Y-3905580D1*
X2581160Y-3925867D1*
X2593287Y-3943170D1*
X2581320Y-3960010D1*
X2570097Y-3980283D1*
X2561213Y-4001683D1*
X2554783Y-4023943D1*
X2550887Y-4046783D1*
X2549570Y-4069917D1*
X2550853Y-4093050D1*
X2554717Y-4115897D1*
X2561117Y-4138167D1*
X2569967Y-4159580D1*
X2581160Y-4179867D1*
X2593287Y-4197170D1*
X2581320Y-4214010D1*
X2570097Y-4234283D1*
X2561213Y-4255683D1*
X2554783Y-4277943D1*
X2550887Y-4300783D1*
X2549570Y-4323917D1*
X2550853Y-4347050D1*
X2554717Y-4369897D1*
X2561117Y-4392167D1*
X2569967Y-4413580D1*
X2581160Y-4433867D1*
X2593287Y-4451170D1*
X2581320Y-4468010D1*
X2570097Y-4488283D1*
X2561213Y-4509683D1*
X2554783Y-4531943D1*
X2550887Y-4554783D1*
X2549570Y-4577917D1*
X2550853Y-4601050D1*
X2554717Y-4623897D1*
X2561117Y-4646167D1*
X2569967Y-4667580D1*
X2581160Y-4687867D1*
X2593287Y-4705170D1*
X2581320Y-4722010D1*
X2570097Y-4742283D1*
X2561213Y-4763683D1*
X2554783Y-4785943D1*
X2550887Y-4808783D1*
X2549570Y-4831917D1*
X2550853Y-4855050D1*
X2554717Y-4877897D1*
X2561117Y-4900167D1*
X2569967Y-4921580D1*
X2581160Y-4941867D1*
X2593287Y-4959170D1*
X2581320Y-4976010D1*
X2570097Y-4996283D1*
X2561213Y-5017683D1*
X2554783Y-5039943D1*
X2550887Y-5062783D1*
X2549570Y-5085917D1*
X2550853Y-5109050D1*
X2554717Y-5131897D1*
X2561117Y-5154167D1*
X2569967Y-5175580D1*
X2581160Y-5195867D1*
X2593287Y-5213170D1*
X2581320Y-5230010D1*
X2570097Y-5250283D1*
X2561213Y-5271683D1*
X2554783Y-5293943D1*
X2550887Y-5316783D1*
X2549570Y-5339917D1*
X2550853Y-5363050D1*
X2554717Y-5385897D1*
X2561117Y-5408167D1*
X2569967Y-5429580D1*
X2581160Y-5449867D1*
X2593287Y-5467170D1*
X2581320Y-5484010D1*
X2570097Y-5504283D1*
X2561213Y-5525683D1*
X2554783Y-5547943D1*
X2550887Y-5570783D1*
X2549570Y-5593917D1*
X2550853Y-5617050D1*
X2554717Y-5639897D1*
X2561117Y-5662167D1*
X2569967Y-5683580D1*
X2581160Y-5703867D1*
X2593287Y-5721170D1*
X2581320Y-5738010D1*
X2570097Y-5758283D1*
X2561213Y-5779683D1*
X2554783Y-5801943D1*
X2550887Y-5824783D1*
X2549570Y-5847917D1*
X2550853Y-5871050D1*
X2554717Y-5893897D1*
X2561117Y-5916167D1*
X2569967Y-5937580D1*
X2581160Y-5957867D1*
X2593287Y-5975170D1*
X2581320Y-5992010D1*
X2570097Y-6012283D1*
X2561213Y-6033683D1*
X2554783Y-6055943D1*
X2550887Y-6078783D1*
X2549570Y-6101917D1*
X2550853Y-6125050D1*
X2554717Y-6147897D1*
X2561117Y-6170167D1*
X2569967Y-6191580D1*
X2581160Y-6211867D1*
X2593287Y-6229170D1*
X2581320Y-6246010D1*
X2570097Y-6266283D1*
X2561213Y-6287683D1*
X2554783Y-6309943D1*
X2550887Y-6332783D1*
X2549570Y-6355917D1*
X2550853Y-6379050D1*
X2554717Y-6401897D1*
X2555063Y-6403447D1*
X2549570D1*
Y-6816687D1*
X3194430Y-6816677D1*
X3194417Y-7152280D1*
X2831830Y-7514867D1*
X2819960Y-7528030D1*
X-329820Y-7611937D2*
Y-7586997D1*
Y-7611937D1*
D22*
X-6019623Y-4397377D3*
D23*
X-7029623D3*
D22*
X-4336873Y-4381500D3*
D23*
X-5346873D3*
D22*
X-2622377Y-4397373D3*
D23*
X-3632377D3*
D22*
X-860250Y-4381500D3*
D23*
X-1870250D3*
D22*
X-1508127Y-2568750D3*
D23*
Y-1558750D3*
D24*
X3587750Y-2682873D3*
D25*
Y-2428873D3*
D26*
X2952750Y-1539873D3*
D27*
X2452750D3*
D28*
X-6302377Y-1841503D3*
D29*
X-6556377D3*
D28*
X-5635623D3*
D29*
X-5889623D3*
D28*
X-4937123D3*
D29*
X-5191123D3*
D28*
X-4238623Y-1809753D3*
D29*
X-4492623D3*
D22*
X-2000250Y-1571627D3*
D23*
X-2254250D3*
X-2508250D3*
X-2762250D3*
X-3016250D3*
X-3270250D3*
D22*
X2756190Y-6610067D3*
D23*
Y-6356067D3*
Y-6102067D3*
Y-5848067D3*
Y-5594067D3*
Y-5340067D3*
Y-5086067D3*
Y-4832067D3*
Y-4578067D3*
Y-4324067D3*
Y-4070067D3*
Y-3816067D3*
Y-3562067D3*
Y-3308067D3*
Y-3054067D3*
D22*
X73307Y-6610067D3*
D23*
Y-6356067D3*
Y-6102067D3*
Y-5848067D3*
Y-5594067D3*
Y-5340067D3*
Y-5086067D3*
Y-4832067D3*
Y-4578067D3*
Y-4324067D3*
Y-4070067D3*
Y-3816067D3*
Y-3562067D3*
Y-3308067D3*
Y-3054067D3*
D22*
X454303Y-6610067D3*
D23*
Y-6356067D3*
Y-6102067D3*
Y-5848067D3*
Y-5594067D3*
Y-5340067D3*
Y-5086067D3*
Y-4832067D3*
Y-4578067D3*
Y-4324067D3*
Y-4070067D3*
Y-3816067D3*
Y-3562067D3*
Y-3308067D3*
Y-3054067D3*
D26*
X-7167500Y-7604127D3*
D27*
X-6667500D3*
X-6167500D3*
D26*
X-5437123Y-7588250D3*
D27*
X-4937123D3*
X-4437123D3*
D26*
X-3706750D3*
D27*
X-3206750D3*
X-2706750D3*
D26*
X-1992250D3*
D27*
X-1492250D3*
X-992250D3*
D22*
X857250Y-7397753D3*
D23*
X603250D3*
X349250D3*
X95250D3*
X-158750D3*
X-412750D3*
D22*
X3121303Y-6610067D3*
D23*
Y-6356067D3*
Y-6102067D3*
Y-5848067D3*
Y-5594067D3*
Y-5340067D3*
Y-5086067D3*
Y-4832067D3*
Y-4578067D3*
Y-4324067D3*
Y-4070067D3*
Y-3816067D3*
Y-3562067D3*
Y-3308067D3*
Y-3054067D3*
D30*
X-6699250Y-5019677D3*
X-7296150Y-5222877D3*
X-6102350D3*
Y-6442077D3*
X-7296150D3*
X-4968873Y-5003797D3*
X-5565773Y-5206997D3*
X-4371973D3*
Y-6426197D3*
X-5565773D3*
X-3254373Y-5003797D3*
X-3851273Y-5206997D3*
X-2657473D3*
Y-6426197D3*
X-3851273D3*
X-1524000Y-5003797D3*
X-2120900Y-5206997D3*
X-927100D3*
Y-6426197D3*
X-2120900D3*
D28*
X-301623Y-1936750D3*
D29*
Y-1682750D3*
D31*
X-7270750Y-3429000D3*
D32*
Y-4445000D3*
D31*
X-5730873Y-3397250D3*
D32*
Y-4413250D3*
D31*
X-3952873Y-3365500D3*
D32*
Y-4381500D3*
D31*
X-2143123Y-3349627D3*
D32*
Y-4365627D3*
D31*
X-6445250Y-2333623D3*
D32*
Y-3349623D3*
D31*
X-5048250Y-2333627D3*
D32*
Y-3349627D3*
D31*
X-3698873Y-2301877D3*
D32*
Y-3317877D3*
D31*
X-2365373Y-2254250D3*
D32*
Y-3270250D3*
D31*
X469804Y-2587586D3*
D32*
X482696Y-1571668D3*
D33*
X762000Y-8032750D3*
D34*
X262000D3*
D33*
X1587500D3*
D34*
X1087500D3*
D33*
X2381250Y-8016873D3*
D34*
X1881250D3*
D33*
X3206750Y-8032750D3*
D34*
X2706750D3*
D22*
X-6889750Y-3810000D3*
D23*
X-6635750D3*
X-6381750D3*
D22*
X-5286373D3*
D23*
X-5032373D3*
X-4778373D3*
D22*
X-3540123Y-3778250D3*
D23*
X-3286123D3*
X-3032123D3*
D22*
X-1682750D3*
D23*
X-1428750D3*
X-1174750D3*
D24*
X-952500Y-1952627D3*
D25*
Y-1698627D3*
D22*
X-7016750Y-2428873D3*
D35*
X-7270750D3*
Y-3190873D3*
X-7016750D3*
D22*
X-5651500Y-2428873D3*
D35*
X-5905500D3*
Y-3190873D3*
X-5651500D3*
D22*
X-4302127Y-2444750D3*
D35*
X-4556127D3*
Y-3206750D3*
X-4302127D3*
D22*
X-2952750Y-2428877D3*
D35*
X-3206750D3*
Y-3190877D3*
X-2952750D3*
X115495Y-1196043D2*
D74*
Y-1400219D1*
X47436Y-1196043D2*
X183553D1*
X246298Y-1322502D2*
X362874D1*
Y-1302960D1*
X353215Y-1283419D1*
X343557Y-1273760D1*
X324015Y-1264102D1*
X294815D1*
X275498Y-1273760D1*
X255957Y-1293302D1*
X246298Y-1322502D1*
Y-1341819D1*
X255957Y-1371019D1*
X275498Y-1390336D1*
X294815Y-1400219D1*
X324015D1*
X343557Y-1390336D1*
X362874Y-1371019D1*
X542419Y-1293302D2*
X522877Y-1273760D1*
X503336Y-1264102D1*
X474360D1*
X454819Y-1273760D1*
X435502Y-1293302D1*
X425619Y-1322502D1*
Y-1341819D1*
X435502Y-1371019D1*
X454819Y-1390336D1*
X474360Y-1400219D1*
X503336D1*
X522877Y-1390336D1*
X542419Y-1371019D1*
X605164Y-1196043D2*
Y-1400219D1*
Y-1302960D2*
X634364Y-1273760D1*
X653905Y-1264102D1*
X683105D1*
X702422Y-1273760D1*
X712081Y-1302960D1*
Y-1400219D1*
X910943Y-1225243D2*
X891626Y-1205702D1*
X862426Y-1196043D1*
X823567D1*
X794367Y-1205702D1*
X774826Y-1225243D1*
Y-1244560D1*
X784709Y-1264102D1*
X794367Y-1273760D1*
X813684Y-1283419D1*
X872084Y-1302960D1*
X891626Y-1312619D1*
X901284Y-1322502D1*
X910943Y-1341819D1*
Y-1371019D1*
X891626Y-1390336D1*
X862426Y-1400219D1*
X823567D1*
X794367Y-1390336D1*
X774826Y-1371019D1*
X1002888Y-1196043D2*
Y-1361360D1*
X1012546Y-1390336D1*
X1032088Y-1400219D1*
X1051405D1*
X973688Y-1264102D2*
X1041746D1*
X1114150D2*
Y-1361360D1*
X1123808Y-1390336D1*
X1143350Y-1400219D1*
X1172550D1*
X1191867Y-1390336D1*
X1221067Y-1361360D1*
Y-1264102D2*
Y-1400219D1*
X1400387Y-1196043D2*
Y-1400219D1*
Y-1293302D2*
X1381070Y-1273760D1*
X1361529Y-1264102D1*
X1332329D1*
X1313012Y-1273760D1*
X1293470Y-1293302D1*
X1283812Y-1322502D1*
Y-1341819D1*
X1293470Y-1371019D1*
X1313012Y-1390336D1*
X1332329Y-1400219D1*
X1361529D1*
X1381070Y-1390336D1*
X1400387Y-1371019D1*
X1473016Y-1264102D2*
X1531191Y-1400219D1*
X1511874Y-1439077D1*
X1492332Y-1458619D1*
X1473016Y-1468277D1*
X1463132D1*
X1589591Y-1264102D2*
X1531191Y-1400219D1*
X1798111Y-1244560D2*
X1788453Y-1225243D1*
X1768911Y-1205702D1*
X1749594Y-1196043D1*
X1710736D1*
X1691194Y-1205702D1*
X1671878Y-1225243D1*
X1661994Y-1244560D1*
X1652336Y-1273760D1*
Y-1322502D1*
X1661994Y-1351477D1*
X1671878Y-1371019D1*
X1691194Y-1390336D1*
X1710736Y-1400219D1*
X1749594D1*
X1768911Y-1390336D1*
X1788453Y-1371019D1*
X1798111Y-1351477D1*
X1860856Y-1322502D2*
X1977432D1*
Y-1302960D1*
X1967773Y-1283419D1*
X1958115Y-1273760D1*
X1938573Y-1264102D1*
X1909373D1*
X1890056Y-1273760D1*
X1870515Y-1293302D1*
X1860856Y-1322502D1*
Y-1341819D1*
X1870515Y-1371019D1*
X1890056Y-1390336D1*
X1909373Y-1400219D1*
X1938573D1*
X1958115Y-1390336D1*
X1977432Y-1371019D1*
X2040177Y-1196043D2*
Y-1400219D1*
X2102922Y-1196043D2*
Y-1400219D1*
M02*
